<?xml version="1.0" encoding="utf-8"?>
<!-- Generator: Adobe Illustrator 26.0.0, SVG Export Plug-In . SVG Version: 6.00 Build 0)  -->
<svg version="1.1" xmlns="http://www.w3.org/2000/svg" xmlns:xlink="http://www.w3.org/1999/xlink" x="0px" y="0px"
	 viewBox="0 0 222.11 206.3" style="enable-background:new 0 0 222.11 206.3;" xml:space="preserve">
<style type="text/css">
	.st0{fill:#4C4C4C;}
	.st1{opacity:0.8;fill:url(#SVGID_1_);}
	.st2{fill:url(#SVGID_00000113348192706560992960000001737565234307081350_);}
	.st3{opacity:0.8;fill:url(#SVGID_00000075853624991417128350000009484587189214409611_);}
	.st4{fill:url(#SVGID_00000060719916660408659720000017087911997700376238_);}
	.st5{fill:#FFFFFF;}
	.st6{opacity:0.8;fill:url(#SVGID_00000177445808164795598860000013725966992155477941_);}
	.st7{fill:url(#SVGID_00000144312114697807366240000005798908699106020532_);}
	.st8{opacity:0.8;fill:url(#SVGID_00000012448929960272085360000014201087041054350997_);}
	.st9{fill:url(#SVGID_00000074414433849859410800000001219509423904763063_);}
	.st10{fill-rule:evenodd;clip-rule:evenodd;fill:#FFFFFF;}
	.st11{opacity:0.8;fill:url(#SVGID_00000110462296047519310280000000110587605865761454_);}
	.st12{fill:url(#SVGID_00000131337331595540078240000008022065693783518869_);}
	.st13{opacity:0.8;fill:url(#SVGID_00000129916442064885517300000011797174690283819433_);}
	.st14{fill:url(#SVGID_00000049925959358026455510000011460904515892376713_);}
	.st15{opacity:0.8;fill:url(#SVGID_00000183946634370317057590000012157454130278640568_);}
	.st16{fill:url(#SVGID_00000011739703547153275160000017545462079746153892_);}
	.st17{opacity:0.8;fill:url(#SVGID_00000116211903207740614420000008488162020233481914_);}
	.st18{fill:url(#SVGID_00000057150265048819308060000002213932436032157862_);}
	.st19{fill-rule:evenodd;clip-rule:evenodd;fill:#EE1D52;}
	.st20{fill-rule:evenodd;clip-rule:evenodd;fill:#69C9D0;}
	.st21{opacity:0.8;fill:url(#SVGID_00000118376198142294441020000007213914884839374991_);}
	.st22{fill:url(#SVGID_00000033337900992994958460000008854809929730157461_);}
	.st23{opacity:0.8;fill:url(#SVGID_00000131367199683662348460000005729702386645726635_);}
	.st24{fill:url(#SVGID_00000058578884206338488310000008918386063235227020_);}
	.st25{opacity:0.8;fill:url(#SVGID_00000145755629348384012450000002559579593658138533_);}
	.st26{fill:url(#SVGID_00000054245119918105916490000002586024835632252316_);}
	.st27{opacity:0.8;fill:url(#SVGID_00000080173827308801249530000010820829979751123367_);}
	.st28{fill:url(#SVGID_00000121971690742013604890000006012916582317441717_);}
	.st29{opacity:0.8;fill:url(#SVGID_00000042008684133523276490000001735154598374793387_);}
	.st30{opacity:0.8;fill:url(#SVGID_00000052821329851687682510000016146478271355715465_);}
	.st31{fill:#2B4A8E;}
	.st32{opacity:0.8;fill:url(#SVGID_00000163069065840015471610000006508394534568298668_);}
	.st33{opacity:0.8;fill:url(#SVGID_00000002349798253724481390000016489808149924235922_);}
	.st34{opacity:0.8;fill:url(#SVGID_00000050646962733210305900000004299366790102777482_);}
	.st35{opacity:0.8;fill:url(#SVGID_00000170980536412417848630000015777056341031609478_);}
	.st36{opacity:0.8;fill:url(#SVGID_00000094609309062068276140000016506015779842613132_);}
	.st37{opacity:0.8;fill:url(#SVGID_00000166648315408000047590000006236694078578402971_);}
	.st38{opacity:0.8;fill:url(#SVGID_00000070829683087887846990000011428013162140745397_);}
	.st39{clip-path:url(#SVGID_00000129171581333773345060000009744290230416376730_);}
	.st40{clip-path:url(#SVGID_00000039123192754557245980000003128037769379839621_);}
	.st41{clip-path:url(#SVGID_00000039123192754557245980000003128037769379839621_);fill:#C10E1A;}
	.st42{clip-path:url(#SVGID_00000039123192754557245980000003128037769379839621_);fill:#EFC515;}
	.st43{clip-path:url(#SVGID_00000039123192754557245980000003128037769379839621_);fill:#518E3F;}
	.st44{clip-path:url(#SVGID_00000039123192754557245980000003128037769379839621_);fill:#2B4A8E;}
	.st45{clip-path:url(#SVGID_00000039123192754557245980000003128037769379839621_);fill:#FFFFFF;}
</style>
<g id="BACKGROUND">
</g>
<g id="ELEMENTS">
	<g>
		<path class="st0" d="M-325.84-346.74c0.92,0,1.39,0.55,1.39,1.51v0.19h-0.89v-0.25c0-0.43-0.17-0.59-0.47-0.59
			c-0.3,0-0.47,0.16-0.47,0.59c0,1.23,1.84,1.47,1.84,3.18c0,0.96-0.48,1.51-1.41,1.51c-0.93,0-1.41-0.55-1.41-1.51v-0.37h0.89v0.43
			c0,0.43,0.19,0.58,0.49,0.58c0.3,0,0.49-0.15,0.49-0.58c0-1.23-1.84-1.47-1.84-3.18C-327.23-346.19-326.75-346.74-325.84-346.74z"
			/>
		<path class="st0" d="M-321.4-345.23c0-0.96,0.51-1.51,1.43-1.51c0.93,0,1.43,0.55,1.43,1.51v3.12c0,0.96-0.51,1.51-1.43,1.51
			c-0.93,0-1.43-0.55-1.43-1.51V-345.23z M-320.46-342.05c0,0.43,0.19,0.59,0.49,0.59c0.3,0,0.49-0.16,0.49-0.59v-3.24
			c0-0.43-0.19-0.59-0.49-0.59c-0.3,0-0.49,0.16-0.49,0.59V-342.05z"/>
		<path class="st0" d="M-312.62-342.91v0.8c0,0.96-0.48,1.51-1.41,1.51c-0.93,0-1.41-0.55-1.41-1.51v-3.12
			c0-0.96,0.48-1.51,1.41-1.51c0.93,0,1.41,0.55,1.41,1.51v0.58h-0.89v-0.64c0-0.43-0.19-0.59-0.49-0.59c-0.3,0-0.49,0.16-0.49,0.59
			v3.24c0,0.43,0.19,0.58,0.49,0.58c0.3,0,0.49-0.15,0.49-0.58v-0.86H-312.62z"/>
		<path class="st0" d="M-309.47-346.67h0.94v6h-0.94V-346.67z"/>
		<path class="st0" d="M-302.21-340.67h-0.95l-0.16-1.09h-1.16l-0.16,1.09h-0.87l0.96-6h1.38L-302.21-340.67z M-304.36-342.57h0.91
			l-0.45-3.04L-304.36-342.57z"/>
		<path class="st0" d="M-299.2-346.67h0.94v5.15h1.55v0.86h-2.5V-346.67z"/>
		<path class="st0" d="M-287.81-342.41l0.64-4.26h1.31v6h-0.89v-4.3l-0.65,4.3h-0.89l-0.7-4.24v4.24h-0.82v-6h1.31L-287.81-342.41z"
			/>
		<path class="st0" d="M-281.65-344.14h1.29v0.86h-1.29v1.76h1.63v0.86h-2.57v-6h2.57v0.86h-1.63V-344.14z"/>
		<path class="st0" d="M-276.87-346.67h1.49c0.94,0,1.41,0.52,1.41,1.48v3.04c0,0.96-0.46,1.48-1.41,1.48h-1.49V-346.67z
			 M-275.92-345.81v4.29h0.53c0.3,0,0.48-0.15,0.48-0.58v-3.12c0-0.43-0.18-0.58-0.48-0.58H-275.92z"/>
		<path class="st0" d="M-270.79-346.67h0.94v6h-0.94V-346.67z"/>
		<path class="st0" d="M-263.53-340.67h-0.95l-0.16-1.09h-1.16l-0.16,1.09h-0.87l0.96-6h1.38L-263.53-340.67z M-265.69-342.57h0.91
			l-0.45-3.04L-265.69-342.57z"/>
		<path class="st0" d="M-334.76-330.37v-6h0.39v5.64h1.89v0.36H-334.76z"/>
		<path class="st0" d="M-329.34-334.91c0-0.87,0.4-1.52,1.31-1.52c0.93,0,1.33,0.64,1.33,1.52v3.07c0,0.87-0.4,1.52-1.33,1.52
			c-0.91,0-1.31-0.64-1.31-1.52V-334.91z M-328.94-331.81c0,0.65,0.26,1.13,0.92,1.13c0.67,0,0.94-0.48,0.94-1.13v-3.12
			c0-0.65-0.27-1.13-0.94-1.13c-0.66,0-0.92,0.48-0.92,1.13V-331.81z"/>
		<path class="st0" d="M-320.9-334.91v0.45h-0.38v-0.47c0-0.64-0.25-1.13-0.91-1.13c-0.66,0-0.91,0.49-0.91,1.13v3.12
			c0,0.64,0.25,1.12,0.91,1.12c0.66,0,0.91-0.48,0.91-1.12v-1.29h-0.8v-0.36h1.17v1.63c0,0.87-0.38,1.52-1.29,1.52
			c-0.92,0-1.29-0.65-1.29-1.52v-3.07c0-0.87,0.38-1.52,1.29-1.52C-321.28-336.43-320.9-335.77-320.9-334.91z"/>
		<path class="st0" d="M-317.69-334.91c0-0.87,0.4-1.52,1.31-1.52c0.93,0,1.33,0.64,1.33,1.52v3.07c0,0.87-0.4,1.52-1.33,1.52
			c-0.91,0-1.31-0.64-1.31-1.52V-334.91z M-317.3-331.81c0,0.65,0.26,1.13,0.92,1.13c0.67,0,0.94-0.48,0.94-1.13v-3.12
			c0-0.65-0.27-1.13-0.94-1.13c-0.66,0-0.92,0.48-0.92,1.13V-331.81z"/>
		<path class="st0" d="M-305.36-334.91v0.5h-0.38v-0.52c0-0.64-0.25-1.13-0.91-1.13c-0.66,0-0.91,0.49-0.91,1.13v3.12
			c0,0.64,0.25,1.12,0.91,1.12c0.66,0,0.91-0.48,0.91-1.12v-0.71h0.38v0.69c0,0.87-0.38,1.52-1.29,1.52c-0.92,0-1.29-0.65-1.29-1.52
			v-3.07c0-0.87,0.38-1.52,1.29-1.52C-305.74-336.43-305.36-335.77-305.36-334.91z"/>
		<path class="st0" d="M-302.16-334.91c0-0.87,0.4-1.52,1.31-1.52c0.93,0,1.33,0.64,1.33,1.52v3.07c0,0.87-0.4,1.52-1.33,1.52
			c-0.91,0-1.31-0.64-1.31-1.52V-334.91z M-301.77-331.81c0,0.65,0.26,1.13,0.92,1.13c0.67,0,0.94-0.48,0.94-1.13v-3.12
			c0-0.65-0.27-1.13-0.94-1.13c-0.66,0-0.92,0.48-0.92,1.13V-331.81z"/>
		<path class="st0" d="M-296.3-330.37v-6h0.39v5.64h1.89v0.36H-296.3z"/>
		<path class="st0" d="M-290.85-330.37v-6h0.39v5.64h1.89v0.36H-290.85z"/>
		<path class="st0" d="M-283.37-333.6v0.36h-1.64v2.5h1.97v0.36h-2.37v-6h2.37v0.36h-1.97v2.42H-283.37z"/>
		<path class="st0" d="M-277.25-334.91v0.5h-0.38v-0.52c0-0.64-0.25-1.13-0.91-1.13c-0.66,0-0.91,0.49-0.91,1.13v3.12
			c0,0.64,0.25,1.12,0.91,1.12c0.66,0,0.91-0.48,0.91-1.12v-0.71h0.38v0.69c0,0.87-0.38,1.52-1.29,1.52c-0.92,0-1.29-0.65-1.29-1.52
			v-3.07c0-0.87,0.38-1.52,1.29-1.52C-277.63-336.43-277.25-335.77-277.25-334.91z"/>
		<path class="st0" d="M-272.99-330.37v-5.64h-1.23v-0.36h2.84v0.36h-1.22v5.64H-272.99z"/>
		<path class="st0" d="M-267.9-336.37v6h-0.39v-6H-267.9z"/>
		<path class="st0" d="M-264.66-334.91c0-0.87,0.4-1.52,1.31-1.52c0.93,0,1.33,0.64,1.33,1.52v3.07c0,0.87-0.4,1.52-1.33,1.52
			c-0.91,0-1.31-0.64-1.31-1.52V-334.91z M-264.27-331.81c0,0.65,0.26,1.13,0.92,1.13c0.67,0,0.94-0.48,0.94-1.13v-3.12
			c0-0.65-0.27-1.13-0.94-1.13c-0.66,0-0.92,0.48-0.92,1.13V-331.81z"/>
		<path class="st0" d="M-258.44-330.37h-0.36v-6h0.51l1.8,5.07v-5.07h0.36v6h-0.44l-1.88-5.35V-330.37z"/>
	</g>
	<g>
		<radialGradient id="SVGID_1_" cx="-397.979" cy="-286.4857" r="21" gradientUnits="userSpaceOnUse">
			<stop  offset="0" style="stop-color:#000056"/>
			<stop  offset="0.2482" style="stop-color:#4C4C88;stop-opacity:0.7518"/>
			<stop  offset="0.5193" style="stop-color:#9898BB;stop-opacity:0.4807"/>
			<stop  offset="0.744" style="stop-color:#D0D0E0;stop-opacity:0.256"/>
			<stop  offset="0.9103" style="stop-color:#F2F2F6;stop-opacity:0.0897"/>
			<stop  offset="1" style="stop-color:#FFFFFF;stop-opacity:0"/>
		</radialGradient>
		<circle class="st1" cx="-397.98" cy="-286.49" r="21"/>
		
			<linearGradient id="SVGID_00000075877584132430216430000012161973249170016643_" gradientUnits="userSpaceOnUse" x1="-393.2929" y1="-305.37" x2="-413.9707" y2="-284.6922">
			<stop  offset="1.104800e-03" style="stop-color:#FBE18A"/>
			<stop  offset="0.2094" style="stop-color:#FCBB45"/>
			<stop  offset="0.3765" style="stop-color:#F75274"/>
			<stop  offset="0.5238" style="stop-color:#D53692"/>
			<stop  offset="0.7394" style="stop-color:#8F39CE"/>
			<stop  offset="1" style="stop-color:#5B4FE9"/>
		</linearGradient>
		<circle style="fill:url(#SVGID_00000075877584132430216430000012161973249170016643_);" cx="-403.63" cy="-295.03" r="14.62"/>
		<g>
			
				<radialGradient id="SVGID_00000035520345802548672350000000035720784296981141_" cx="-440.8606" cy="-244.273" r="21.5" gradientUnits="userSpaceOnUse">
				<stop  offset="0" style="stop-color:#000056"/>
				<stop  offset="0.2482" style="stop-color:#4C4C88;stop-opacity:0.7518"/>
				<stop  offset="0.5193" style="stop-color:#9898BB;stop-opacity:0.4807"/>
				<stop  offset="0.744" style="stop-color:#D0D0E0;stop-opacity:0.256"/>
				<stop  offset="0.9103" style="stop-color:#F2F2F6;stop-opacity:0.0897"/>
				<stop  offset="1" style="stop-color:#FFFFFF;stop-opacity:0"/>
			</radialGradient>
			
				<circle style="opacity:0.8;fill:url(#SVGID_00000035520345802548672350000000035720784296981141_);" cx="-440.86" cy="-244.27" r="21.5"/>
			
				<linearGradient id="SVGID_00000031184766694624231640000012790542131659872684_" gradientUnits="userSpaceOnUse" x1="-435.7623" y1="-262.886" x2="-456.4401" y2="-242.2082">
				<stop  offset="0" style="stop-color:#FEFB01"/>
				<stop  offset="1" style="stop-color:#FCBB45"/>
			</linearGradient>
			<circle style="fill:url(#SVGID_00000031184766694624231640000012790542131659872684_);" cx="-446.1" cy="-252.55" r="14.62"/>
			<path class="st5" d="M-455.04-247.82c0-0.09,0-0.19,0-0.28c0.11-0.13,0.24-0.25,0.42-0.28c1.47-0.29,2.46-1.23,3.2-2.46
				c0.62-1.04,0.52-1.27-0.63-1.68c-0.07-0.02-0.13-0.04-0.2-0.07c-0.25-0.1-0.49-0.21-0.7-0.39c-0.52-0.45-0.21-1.09,0.4-1.24
				c0.44-0.11,0.83,0.18,1.26,0.23c0.29,0.04,0.4-0.06,0.37-0.37c-0.09-0.79-0.09-1.58-0.05-2.38c0.07-1.51,0.81-2.67,2.08-3.41
				c1.84-1.09,3.76-1.1,5.62-0.02c1.16,0.68,1.9,1.71,2.07,3.08c0.11,0.9,0.06,1.79-0.01,2.69c-0.03,0.39,0.05,0.46,0.43,0.37
				c0.48-0.11,0.88-0.36,1.38-0.14c0.27,0.12,0.5,0.37,0.49,0.66c0,0.2-0.12,0.38-0.27,0.51c-0.23,0.2-0.53,0.31-0.81,0.42
				c-0.22,0.09-0.44,0.16-0.65,0.25c-0.43,0.2-0.56,0.47-0.36,0.9c0.7,1.49,1.74,2.62,3.41,3.01c0.2,0.05,0.37,0.13,0.49,0.3
				c0,0.09,0,0.19,0,0.28c-0.16,0.33-0.44,0.51-0.76,0.63c-0.33,0.12-0.66,0.26-1.01,0.29c-0.49,0.03-0.74,0.24-0.81,0.75
				c-0.07,0.48-0.22,0.55-0.7,0.51c-0.12-0.01-0.23-0.03-0.35-0.05c-0.96-0.17-1.86-0.07-2.65,0.56c-0.15,0.12-0.32,0.23-0.49,0.34
				c-1.34,0.87-2.72,0.97-4.12,0.15c-0.38-0.22-0.75-0.48-1.12-0.72c-0.31-0.2-0.64-0.31-1.01-0.37c-0.58-0.09-1.14,0.04-1.71,0.1
				c-0.29,0.03-0.57-0.05-0.59-0.35c-0.04-0.73-0.48-0.9-1.09-0.97c-0.28-0.03-0.57-0.15-0.83-0.26
				C-454.64-247.34-454.9-247.51-455.04-247.82z"/>
		</g>
		<g>
			
				<radialGradient id="SVGID_00000052826298875042657380000003735546363178406559_" cx="-355.0974" cy="-286.4857" r="21" gradientUnits="userSpaceOnUse">
				<stop  offset="0" style="stop-color:#000056"/>
				<stop  offset="0.2482" style="stop-color:#4C4C88;stop-opacity:0.7518"/>
				<stop  offset="0.5193" style="stop-color:#9898BB;stop-opacity:0.4807"/>
				<stop  offset="0.744" style="stop-color:#D0D0E0;stop-opacity:0.256"/>
				<stop  offset="0.9103" style="stop-color:#F2F2F6;stop-opacity:0.0897"/>
				<stop  offset="1" style="stop-color:#FFFFFF;stop-opacity:0"/>
			</radialGradient>
			
				<circle style="opacity:0.8;fill:url(#SVGID_00000052826298875042657380000003735546363178406559_);" cx="-355.1" cy="-286.49" r="21"/>
			
				<linearGradient id="SVGID_00000151501281523718275630000017518488926269703066_" gradientUnits="userSpaceOnUse" x1="-350.8088" y1="-305.37" x2="-371.4866" y2="-284.6922">
				<stop  offset="0" style="stop-color:#33CCFF"/>
				<stop  offset="1" style="stop-color:#337FFF"/>
			</linearGradient>
			<circle style="fill:url(#SVGID_00000151501281523718275630000017518488926269703066_);" cx="-361.15" cy="-295.03" r="14.62"/>
			<path class="st5" d="M-353.07-300.04c-0.51,0.23-1.07,0.37-1.61,0.46c0.26-0.04,0.64-0.51,0.79-0.7
				c0.23-0.29,0.43-0.62,0.54-0.98c0.01-0.03,0.02-0.06,0-0.08c-0.04-0.01-0.06-0.01-0.09,0.01c-0.61,0.33-1.24,0.56-1.91,0.73
				c-0.06,0.01-0.1,0-0.13-0.03c-0.06-0.06-0.11-0.12-0.17-0.17c-0.28-0.24-0.58-0.43-0.93-0.57c-0.45-0.18-0.94-0.26-1.42-0.23
				c-0.47,0.03-0.93,0.16-1.35,0.38c-0.42,0.22-0.79,0.52-1.09,0.89c-0.31,0.38-0.53,0.83-0.65,1.3c-0.11,0.46-0.1,0.91-0.03,1.37
				c0.01,0.08,0,0.09-0.07,0.08c-2.63-0.39-4.8-1.33-6.57-3.34c-0.08-0.09-0.12-0.09-0.18,0.01c-0.77,1.16-0.4,3.02,0.57,3.94
				c0.13,0.12,0.26,0.24,0.4,0.36c-0.05,0.01-0.69-0.06-1.27-0.36c-0.08-0.05-0.12-0.02-0.12,0.07c-0.01,0.13,0,0.24,0.02,0.38
				c0.15,1.17,0.96,2.26,2.08,2.69c0.13,0.06,0.28,0.1,0.42,0.13c-0.25,0.06-0.52,0.1-1.24,0.04c-0.09-0.02-0.13,0.03-0.09,0.11
				c0.55,1.49,1.73,1.93,2.61,2.19c0.12,0.02,0.24,0.02,0.36,0.05c-0.01,0.01-0.01,0.01-0.02,0.02c-0.29,0.45-1.31,0.78-1.78,0.95
				c-0.86,0.3-1.8,0.44-2.71,0.35c-0.15-0.02-0.18-0.02-0.22,0c-0.04,0.02-0.01,0.06,0.04,0.1c0.18,0.12,0.37,0.23,0.56,0.33
				c0.58,0.31,1.18,0.55,1.81,0.72c3.26,0.9,6.92,0.24,9.37-2.19c1.92-1.91,2.59-4.54,2.59-7.17c0-0.1,0.12-0.16,0.19-0.21
				c0.5-0.38,0.9-0.82,1.27-1.33c0.08-0.11,0.08-0.21,0.08-0.25c0-0.01,0-0.01,0-0.01C-353-300.08-353-300.07-353.07-300.04z"/>
		</g>
		<g>
			
				<radialGradient id="SVGID_00000173881047787689095260000017963295864753507484_" cx="-355.0974" cy="-244.273" r="21" gradientUnits="userSpaceOnUse">
				<stop  offset="0" style="stop-color:#000056"/>
				<stop  offset="0.2482" style="stop-color:#4C4C88;stop-opacity:0.7518"/>
				<stop  offset="0.5193" style="stop-color:#9898BB;stop-opacity:0.4807"/>
				<stop  offset="0.744" style="stop-color:#D0D0E0;stop-opacity:0.256"/>
				<stop  offset="0.9103" style="stop-color:#F2F2F6;stop-opacity:0.0897"/>
				<stop  offset="1" style="stop-color:#FFFFFF;stop-opacity:0"/>
			</radialGradient>
			
				<circle style="opacity:0.8;fill:url(#SVGID_00000173881047787689095260000017963295864753507484_);" cx="-355.1" cy="-244.27" r="21"/>
			
				<linearGradient id="SVGID_00000001640169227086849040000017976487724237019534_" gradientUnits="userSpaceOnUse" x1="-350.8089" y1="-262.886" x2="-371.4866" y2="-242.2082">
				<stop  offset="0" style="stop-color:#60FC7C"/>
				<stop  offset="1" style="stop-color:#4AB161"/>
			</linearGradient>
			<circle style="fill:url(#SVGID_00000001640169227086849040000017976487724237019534_);" cx="-361.15" cy="-252.55" r="14.62"/>
			<path class="st5" d="M-369.05-244.27l1.22-4.55c-0.69-1.25-1.05-2.64-1.05-4.06c0-4.63,3.77-8.4,8.4-8.4c4.63,0,8.4,3.77,8.4,8.4
				c0,4.63-3.77,8.4-8.4,8.4c-1.39,0-2.76-0.35-3.99-1.02L-369.05-244.27z M-364.25-247.2l0.29,0.17c1.06,0.63,2.26,0.96,3.48,0.96
				c3.76,0,6.81-3.06,6.81-6.81s-3.06-6.81-6.81-6.81c-3.76,0-6.81,3.06-6.81,6.81c0,1.24,0.34,2.46,1,3.53l0.18,0.29l-0.68,2.54
				L-364.25-247.2z"/>
			<path class="st10" d="M-357.36-251.71c-0.35-0.21-0.8-0.44-1.2-0.27c-0.31,0.13-0.51,0.62-0.71,0.87
				c-0.1,0.13-0.23,0.15-0.39,0.08c-1.17-0.47-2.07-1.25-2.72-2.33c-0.11-0.17-0.09-0.3,0.04-0.46c0.2-0.23,0.44-0.49,0.49-0.8
				c0.05-0.31-0.09-0.67-0.22-0.95c-0.16-0.35-0.35-0.86-0.7-1.06c-0.33-0.18-0.75-0.08-1.04,0.15c-0.5,0.41-0.74,1.04-0.73,1.68
				c0,0.18,0.02,0.36,0.07,0.53c0.1,0.42,0.29,0.81,0.51,1.18c0.16,0.28,0.34,0.55,0.53,0.81c0.63,0.85,1.41,1.59,2.31,2.15
				c0.45,0.28,0.94,0.52,1.44,0.69c0.56,0.19,1.07,0.38,1.68,0.26c0.64-0.12,1.27-0.52,1.52-1.13c0.08-0.18,0.11-0.39,0.07-0.58
				C-356.5-251.28-357.04-251.52-357.36-251.71z"/>
		</g>
		<g>
			
				<radialGradient id="SVGID_00000096758773193456872610000007984148821138563206_" cx="-397.979" cy="-244.273" r="21" gradientUnits="userSpaceOnUse">
				<stop  offset="0" style="stop-color:#000056"/>
				<stop  offset="0.2482" style="stop-color:#4C4C88;stop-opacity:0.7518"/>
				<stop  offset="0.5193" style="stop-color:#9898BB;stop-opacity:0.4807"/>
				<stop  offset="0.744" style="stop-color:#D0D0E0;stop-opacity:0.256"/>
				<stop  offset="0.9103" style="stop-color:#F2F2F6;stop-opacity:0.0897"/>
				<stop  offset="1" style="stop-color:#FFFFFF;stop-opacity:0"/>
			</radialGradient>
			
				<circle style="opacity:0.8;fill:url(#SVGID_00000096758773193456872610000007984148821138563206_);" cx="-397.98" cy="-244.27" r="21"/>
			
				<linearGradient id="SVGID_00000178914114157934759030000002483532921924878525_" gradientUnits="userSpaceOnUse" x1="-393.2928" y1="-262.886" x2="-413.9706" y2="-242.2082">
				<stop  offset="0" style="stop-color:#FF0000"/>
				<stop  offset="1" style="stop-color:#850000"/>
			</linearGradient>
			<circle style="fill:url(#SVGID_00000178914114157934759030000002483532921924878525_);" cx="-403.63" cy="-252.55" r="14.62"/>
			<path class="st5" d="M-395.8-254.67c0-1.94-1.57-3.51-3.51-3.51h-8.98c-1.94,0-3.51,1.57-3.51,3.51v4.18
				c0,1.94,1.57,3.51,3.51,3.51h8.98c1.94,0,3.51-1.57,3.51-3.51V-254.67z M-401.08-252.27l-4.03,1.99
				c-0.16,0.09-0.69-0.03-0.69-0.21v-4.09c0-0.18,0.54-0.3,0.7-0.21l3.85,2.1C-401.09-252.59-400.92-252.36-401.08-252.27z"/>
		</g>
		<g>
			<g>
				<path class="st5" d="M-399.09-300.56c-0.56,0-1.01,0.45-1.01,1c0,0.56,0.45,1.01,1.01,1.01c0.56,0,1.01-0.45,1.01-1.01
					C-398.09-300.11-398.54-300.56-399.09-300.56z"/>
				<path class="st5" d="M-403.56-299.27c-2.33,0-4.22,1.89-4.22,4.22c0,2.33,1.89,4.22,4.22,4.22c2.33,0,4.22-1.89,4.22-4.22
					C-399.34-297.38-401.23-299.27-403.56-299.27z M-403.56-292.35c-1.49,0-2.7-1.21-2.7-2.7c0-1.49,1.21-2.7,2.7-2.7
					c1.49,0,2.7,1.21,2.7,2.7C-400.86-293.56-402.07-292.35-403.56-292.35z"/>
				<path class="st5" d="M-400.21-286.48h-6.84c-2.84,0-5.15-2.31-5.15-5.15v-6.84c0-2.84,2.31-5.15,5.15-5.15h6.84
					c2.84,0,5.15,2.31,5.15,5.15v6.84C-395.06-288.79-397.37-286.48-400.21-286.48z M-407.05-302.01c-1.95,0-3.54,1.59-3.54,3.54
					v6.84c0,1.95,1.59,3.54,3.54,3.54h6.84c1.95,0,3.54-1.59,3.54-3.54v-6.84c0-1.95-1.59-3.54-3.54-3.54H-407.05z"/>
			</g>
		</g>
		<g>
			
				<radialGradient id="SVGID_00000022554281820339967850000014034229521048620169_" cx="-440.8606" cy="-286.4857" r="21.5" gradientUnits="userSpaceOnUse">
				<stop  offset="0" style="stop-color:#000056"/>
				<stop  offset="0.2482" style="stop-color:#4C4C88;stop-opacity:0.7518"/>
				<stop  offset="0.5193" style="stop-color:#9898BB;stop-opacity:0.4807"/>
				<stop  offset="0.744" style="stop-color:#D0D0E0;stop-opacity:0.256"/>
				<stop  offset="0.9103" style="stop-color:#F2F2F6;stop-opacity:0.0897"/>
				<stop  offset="1" style="stop-color:#FFFFFF;stop-opacity:0"/>
			</radialGradient>
			
				<circle style="opacity:0.8;fill:url(#SVGID_00000022554281820339967850000014034229521048620169_);" cx="-440.86" cy="-286.49" r="21.5"/>
			<g>
				
					<linearGradient id="SVGID_00000113327575096748742590000001871461925688857747_" gradientUnits="userSpaceOnUse" x1="-456.44" y1="-305.3898" x2="-435.7623" y2="-284.7121">
					<stop  offset="0" style="stop-color:#4676ED"/>
					<stop  offset="0.1854" style="stop-color:#436DE4"/>
					<stop  offset="0.487" style="stop-color:#3C55CD"/>
					<stop  offset="0.8651" style="stop-color:#302EA8"/>
					<stop  offset="1" style="stop-color:#2B1E99"/>
				</linearGradient>
				<path style="fill:url(#SVGID_00000113327575096748742590000001871461925688857747_);" d="M-431.48-295.05
					c0-8.08-6.55-14.62-14.62-14.62c-8.08,0-14.62,6.55-14.62,14.62c0,7.3,5.35,13.35,12.34,14.44v-10.22h-3.71v-4.23h3.71v-3.22
					c0-3.66,2.18-5.69,5.52-5.69c1.6,0,3.27,0.29,3.27,0.29v3.6h-1.84c-1.82,0-2.38,1.13-2.38,2.28v2.74h4.06l-0.65,4.23h-3.41
					v10.22C-436.83-281.7-431.48-287.75-431.48-295.05z"/>
				<path class="st5" d="M-440.41-290.82l0.65-4.23h-4.06v-2.74c0-1.16,0.57-2.28,2.38-2.28h1.84v-3.6c0,0-1.67-0.29-3.27-0.29
					c-3.34,0-5.52,2.02-5.52,5.69v3.22h-3.71v4.23h3.71v10.22c0.74,0.12,1.51,0.18,2.28,0.18c0.78,0,1.54-0.06,2.28-0.18v-10.22
					H-440.41z"/>
			</g>
		</g>
		<g>
			
				<radialGradient id="SVGID_00000132780530005039721290000006684646503939632029_" cx="-440.8606" cy="-201.0602" r="21.5" gradientUnits="userSpaceOnUse">
				<stop  offset="0" style="stop-color:#000056"/>
				<stop  offset="0.2482" style="stop-color:#4C4C88;stop-opacity:0.7518"/>
				<stop  offset="0.5193" style="stop-color:#9898BB;stop-opacity:0.4807"/>
				<stop  offset="0.744" style="stop-color:#D0D0E0;stop-opacity:0.256"/>
				<stop  offset="0.9103" style="stop-color:#F2F2F6;stop-opacity:0.0897"/>
				<stop  offset="1" style="stop-color:#FFFFFF;stop-opacity:0"/>
			</radialGradient>
			
				<circle style="opacity:0.8;fill:url(#SVGID_00000132780530005039721290000006684646503939632029_);" cx="-440.86" cy="-201.06" r="21.5"/>
			
				<linearGradient id="SVGID_00000137846415161999074910000007046005553069988285_" gradientUnits="userSpaceOnUse" x1="-435.7623" y1="-220.3808" x2="-456.44" y2="-199.703">
				<stop  offset="0" style="stop-color:#007AB5"/>
				<stop  offset="1" style="stop-color:#0046E5"/>
			</linearGradient>
			<circle style="fill:url(#SVGID_00000137846415161999074910000007046005553069988285_);" cx="-446.1" cy="-210.04" r="14.62"/>
			<path class="st5" d="M-452.23-212.77h2.83v9.1h-2.83V-212.77z M-450.82-217.29c0.91,0,1.64,0.73,1.64,1.64
				c0,0.9-0.73,1.64-1.64,1.64c-0.91,0-1.64-0.74-1.64-1.64C-452.46-216.55-451.72-217.29-450.82-217.29"/>
			<path class="st5" d="M-447.63-212.77h2.71v1.24h0.04c0.38-0.72,1.3-1.47,2.68-1.47c2.86,0,3.39,1.88,3.39,4.33v4.99h-2.83v-4.42
				c0-1.06-0.02-2.41-1.47-2.41c-1.47,0-1.7,1.15-1.7,2.34v4.5h-2.83V-212.77z"/>
		</g>
		<g>
			
				<radialGradient id="SVGID_00000140008147845300283530000000628626068723183785_" cx="-312.6263" cy="-286.0494" r="21" gradientUnits="userSpaceOnUse">
				<stop  offset="0" style="stop-color:#000056"/>
				<stop  offset="0.2482" style="stop-color:#4C4C88;stop-opacity:0.7518"/>
				<stop  offset="0.5193" style="stop-color:#9898BB;stop-opacity:0.4807"/>
				<stop  offset="0.744" style="stop-color:#D0D0E0;stop-opacity:0.256"/>
				<stop  offset="0.9103" style="stop-color:#F2F2F6;stop-opacity:0.0897"/>
				<stop  offset="1" style="stop-color:#FFFFFF;stop-opacity:0"/>
			</radialGradient>
			
				<circle style="opacity:0.8;fill:url(#SVGID_00000140008147845300283530000000628626068723183785_);" cx="-312.63" cy="-286.05" r="21"/>
			
				<linearGradient id="SVGID_00000040554827444078248670000014458671083729631652_" gradientUnits="userSpaceOnUse" x1="-329.0157" y1="-305.37" x2="-308.3379" y2="-284.6923">
				<stop  offset="0" style="stop-color:#22004A"/>
				<stop  offset="0.9565" style="stop-color:#020003"/>
				<stop  offset="1" style="stop-color:#000000"/>
			</linearGradient>
			<circle style="fill:url(#SVGID_00000040554827444078248670000014458671083729631652_);" cx="-318.68" cy="-295.03" r="14.62"/>
			<g>
				<path class="st19" d="M-314.72-297.71c1.2,0.85,2.66,1.36,4.25,1.36v-3.04c-0.3,0-0.6-0.03-0.89-0.09v2.4
					c-1.58,0-3.05-0.5-4.25-1.36v6.21c0,3.11-2.52,5.63-5.63,5.63c-1.16,0-2.24-0.35-3.13-0.95c1.02,1.04,2.45,1.69,4.03,1.69
					c3.11,0,5.63-2.52,5.63-5.63L-314.72-297.71L-314.72-297.71z M-313.62-300.79c-0.61-0.67-1.01-1.53-1.1-2.48v-0.39h-0.84
					C-315.35-302.45-314.63-301.41-313.62-300.79L-313.62-300.79z M-322.41-289.95c-0.34-0.45-0.53-1-0.53-1.56
					c0-1.42,1.15-2.57,2.58-2.57c0.27,0,0.53,0.04,0.78,0.12v-3.11c-0.3-0.04-0.59-0.06-0.89-0.05v2.42
					c-0.25-0.08-0.52-0.12-0.78-0.12c-1.42,0-2.58,1.15-2.58,2.57C-323.83-291.24-323.25-290.37-322.41-289.95z"/>
				<path class="st10" d="M-315.61-298.45c1.2,0.85,2.66,1.36,4.25,1.36v-2.4c-0.88-0.19-1.67-0.65-2.25-1.29
					c-1.01-0.63-1.73-1.66-1.94-2.88h-2.22v12.16c-0.01,1.42-1.16,2.57-2.58,2.57c-0.84,0-1.58-0.4-2.05-1.02
					c-0.84-0.42-1.42-1.29-1.42-2.3c0-1.42,1.15-2.57,2.58-2.57c0.27,0,0.54,0.04,0.78,0.12v-2.42c-3.06,0.06-5.51,2.56-5.51,5.63
					c0,1.53,0.61,2.92,1.6,3.93c0.9,0.6,1.97,0.95,3.13,0.95c3.11,0,5.63-2.52,5.63-5.63V-298.45z"/>
				<path class="st20" d="M-311.37-299.49v-0.65c-0.8,0-1.58-0.22-2.25-0.64C-313.02-300.13-312.24-299.68-311.37-299.49z
					 M-315.57-303.66c-0.02-0.12-0.04-0.23-0.05-0.35v-0.39h-3.06v12.16c0,1.42-1.16,2.57-2.58,2.57c-0.42,0-0.81-0.1-1.16-0.27
					c0.47,0.62,1.21,1.02,2.05,1.02c1.42,0,2.57-1.15,2.58-2.57v-12.16H-315.57z M-320.47-297.13v-0.69
					c-0.26-0.04-0.51-0.05-0.77-0.05c-3.11,0-5.63,2.52-5.63,5.63c0,1.95,0.99,3.67,2.5,4.68c-0.99-1.01-1.6-2.4-1.6-3.93
					C-325.98-294.57-323.53-297.06-320.47-297.13L-320.47-297.13z"/>
			</g>
		</g>
		<g>
			
				<radialGradient id="SVGID_00000019663093127642064950000005449670349340673450_" cx="-397.979" cy="-201.0602" r="21" gradientUnits="userSpaceOnUse">
				<stop  offset="0" style="stop-color:#000056"/>
				<stop  offset="0.2482" style="stop-color:#4C4C88;stop-opacity:0.7518"/>
				<stop  offset="0.5193" style="stop-color:#9898BB;stop-opacity:0.4807"/>
				<stop  offset="0.744" style="stop-color:#D0D0E0;stop-opacity:0.256"/>
				<stop  offset="0.9103" style="stop-color:#F2F2F6;stop-opacity:0.0897"/>
				<stop  offset="1" style="stop-color:#FFFFFF;stop-opacity:0"/>
			</radialGradient>
			
				<circle style="opacity:0.8;fill:url(#SVGID_00000019663093127642064950000005449670349340673450_);" cx="-397.98" cy="-201.06" r="21"/>
			
				<linearGradient id="SVGID_00000168839162949330819020000002497981355615432616_" gradientUnits="userSpaceOnUse" x1="-393.2929" y1="-220.3808" x2="-413.9707" y2="-199.703">
				<stop  offset="0" style="stop-color:#F26798"/>
				<stop  offset="0.8664" style="stop-color:#C82093"/>
				<stop  offset="1" style="stop-color:#C11592"/>
			</linearGradient>
			<circle style="fill:url(#SVGID_00000168839162949330819020000002497981355615432616_);" cx="-403.63" cy="-210.04" r="14.62"/>
			<path class="st5" d="M-403.63-218.26c-4.54,0-8.22,3.69-8.22,8.21c0,4.53,3.69,8.21,8.22,8.21c4.54,0,8.23-3.68,8.23-8.21
				C-395.41-214.57-399.1-218.26-403.63-218.26L-403.63-218.26z M-398.22-214.38c0.94,1.16,1.51,2.63,1.53,4.23
				c-0.31-0.06-1.63-0.31-3.21-0.31c-0.51,0-1.05,0.03-1.58,0.09c-0.05-0.11-0.09-0.22-0.14-0.33c-0.14-0.33-0.29-0.65-0.45-0.97
				C-399.64-212.67-398.46-214.06-398.22-214.38L-398.22-214.38z M-403.63-216.97c1.75,0,3.35,0.65,4.58,1.72
				c-0.19,0.26-1.24,1.58-3.59,2.46c-1.09-1.98-2.27-3.63-2.56-4.01C-404.69-216.91-404.17-216.97-403.63-216.97L-403.63-216.97z
				 M-406.62-216.3c0.24,0.33,1.43,1.99,2.54,3.96c-2.99,0.79-5.64,0.84-6.28,0.84h-0.07C-409.96-213.62-408.53-215.38-406.62-216.3
				L-406.62-216.3z M-410.58-210.03c0-0.06,0-0.11,0-0.17c0.04,0,0.1,0,0.18,0c0.86,0,3.86-0.07,6.94-0.99
				c0.19,0.37,0.37,0.74,0.53,1.11c-0.08,0.02-0.15,0.04-0.23,0.07c-3.47,1.12-5.38,4.09-5.68,4.58
				C-409.92-206.66-410.58-208.27-410.58-210.03L-410.58-210.03z M-403.63-203.09c-1.59,0-3.06-0.54-4.24-1.44
				c0.2-0.39,1.64-2.98,5.45-4.31c0,0,0,0,0.01,0c0.95,2.48,1.36,4.57,1.47,5.22C-401.77-203.28-402.68-203.09-403.63-203.09
				L-403.63-203.09z M-399.7-204.32c-0.09-0.53-0.47-2.49-1.33-4.87c0.48-0.08,0.96-0.11,1.4-0.11c1.45,0,2.59,0.32,2.85,0.4
				C-397.09-207-398.17-205.36-399.7-204.32L-399.7-204.32z"/>
		</g>
		<g>
			
				<radialGradient id="SVGID_00000060710796876706579060000005392206712705574279_" cx="-312.2157" cy="-244.273" r="21" gradientUnits="userSpaceOnUse">
				<stop  offset="0" style="stop-color:#000056"/>
				<stop  offset="0.2482" style="stop-color:#4C4C88;stop-opacity:0.7518"/>
				<stop  offset="0.5193" style="stop-color:#9898BB;stop-opacity:0.4807"/>
				<stop  offset="0.744" style="stop-color:#D0D0E0;stop-opacity:0.256"/>
				<stop  offset="0.9103" style="stop-color:#F2F2F6;stop-opacity:0.0897"/>
				<stop  offset="1" style="stop-color:#FFFFFF;stop-opacity:0"/>
			</radialGradient>
			
				<circle style="opacity:0.8;fill:url(#SVGID_00000060710796876706579060000005392206712705574279_);" cx="-312.22" cy="-244.27" r="21"/>
			
				<linearGradient id="SVGID_00000064340425153033906470000000452806521674134706_" gradientUnits="userSpaceOnUse" x1="-308.3248" y1="-262.886" x2="-329.0026" y2="-242.2082">
				<stop  offset="0" style="stop-color:#006EF5"/>
				<stop  offset="0.7752" style="stop-color:#2131AE"/>
				<stop  offset="1" style="stop-color:#2B1E99"/>
			</linearGradient>
			<circle style="fill:url(#SVGID_00000064340425153033906470000000452806521674134706_);" cx="-318.66" cy="-252.55" r="14.62"/>
			<path class="st5" d="M-317.85-249.92c0,0.45-0.09,0.84-0.27,1.17c-0.18,0.34-0.42,0.62-0.73,0.85c-0.31,0.23-0.67,0.4-1.08,0.52
				c-0.41,0.12-0.85,0.18-1.31,0.18h-5.09v-10.54h5.64c0.37,0,0.7,0.08,0.99,0.24c0.3,0.16,0.55,0.36,0.76,0.62
				c0.21,0.25,0.37,0.54,0.48,0.86c0.11,0.32,0.17,0.65,0.17,0.97c0,0.51-0.13,1-0.39,1.45c-0.26,0.45-0.63,0.78-1.13,1
				c0.6,0.18,1.08,0.5,1.43,0.96C-318.03-251.19-317.85-250.61-317.85-249.92z M-324.29-255.99v2.66h2.73
				c0.35,0,0.64-0.12,0.88-0.36c0.24-0.24,0.36-0.56,0.36-0.98c0-0.41-0.11-0.73-0.33-0.96c-0.22-0.24-0.5-0.36-0.82-0.36H-324.29z
				 M-319.91-250.31c0-0.19-0.03-0.37-0.1-0.54c-0.06-0.17-0.15-0.32-0.26-0.45c-0.11-0.13-0.24-0.23-0.39-0.3
				c-0.15-0.07-0.31-0.11-0.49-0.11h-3.15v2.77h3.04c0.19,0,0.36-0.03,0.53-0.1c0.16-0.07,0.3-0.17,0.42-0.29
				c0.12-0.12,0.21-0.27,0.28-0.44C-319.95-249.94-319.91-250.12-319.91-250.31z"/>
			<path class="st5" d="M-313.41-247.2c-0.6,0-1.15-0.1-1.64-0.31c-0.97-0.41-1.65-1.1-2.05-2.08c-0.19-0.47-0.28-0.96-0.28-1.48
				c0-0.54,0.09-1.04,0.27-1.52c0.39-0.99,1.07-1.69,2.05-2.11c0.49-0.21,1.05-0.32,1.66-0.32c0.61,0,1.16,0.11,1.65,0.32
				c1.59,0.69,2.34,2.24,2.27,3.91c0,0.12-0.02,0.21-0.04,0.29h-5.82c0.03,0.3,0.1,0.56,0.22,0.79c0.12,0.23,0.26,0.43,0.45,0.59
				c0.18,0.16,0.39,0.29,0.62,0.37c0.23,0.09,0.47,0.13,0.72,0.13c0.38,0,0.75-0.09,1.09-0.28c0.34-0.19,0.57-0.43,0.7-0.74
				l1.65,0.46c-0.28,0.58-0.72,1.05-1.33,1.42C-311.84-247.39-312.57-247.2-313.41-247.2z M-311.46-251.75
				c-0.05-0.57-0.26-1.02-0.63-1.36c-0.37-0.34-0.82-0.51-1.34-0.51c-0.26,0-0.5,0.05-0.73,0.14c-0.23,0.09-0.42,0.22-0.6,0.38
				c-0.17,0.16-0.31,0.36-0.42,0.59c-0.11,0.23-0.17,0.48-0.19,0.76L-311.46-251.75L-311.46-251.75z"/>
			<path class="st5" d="M-315.95-257.24h5.04v1.25h-5.04V-257.24z"/>
		</g>
		<g>
			
				<radialGradient id="SVGID_00000105425552258561507130000002347313328380407426_" cx="-312.2157" cy="-201.0602" r="21" gradientUnits="userSpaceOnUse">
				<stop  offset="0" style="stop-color:#000056"/>
				<stop  offset="0.2482" style="stop-color:#4C4C88;stop-opacity:0.7518"/>
				<stop  offset="0.5193" style="stop-color:#9898BB;stop-opacity:0.4807"/>
				<stop  offset="0.744" style="stop-color:#D0D0E0;stop-opacity:0.256"/>
				<stop  offset="0.9103" style="stop-color:#F2F2F6;stop-opacity:0.0897"/>
				<stop  offset="1" style="stop-color:#FFFFFF;stop-opacity:0"/>
			</radialGradient>
			
				<circle style="opacity:0.8;fill:url(#SVGID_00000105425552258561507130000002347313328380407426_);" cx="-312.22" cy="-201.06" r="21"/>
			
				<linearGradient id="SVGID_00000011011148404950431470000009122110038771331506_" gradientUnits="userSpaceOnUse" x1="-308.3248" y1="-220.3808" x2="-329.0025" y2="-199.703">
				<stop  offset="0" style="stop-color:#00D95F"/>
				<stop  offset="0.9956" style="stop-color:#199250"/>
				<stop  offset="1" style="stop-color:#199250"/>
			</linearGradient>
			<circle style="fill:url(#SVGID_00000011011148404950431470000009122110038771331506_);" cx="-318.66" cy="-210.04" r="14.62"/>
			<path class="st5" d="M-313.03-204.2c-0.16,0.28-0.46,0.44-0.77,0.44c-0.15,0-0.31-0.04-0.45-0.12c-2.33-1.36-5.02-1.58-6.86-1.52
				c-2.04,0.06-3.54,0.47-3.56,0.47c-0.47,0.13-0.96-0.15-1.09-0.62c-0.13-0.47,0.15-0.96,0.62-1.09c0.07-0.02,1.68-0.46,3.93-0.53
				c1.32-0.04,2.59,0.05,3.78,0.27c1.5,0.29,2.88,0.79,4.08,1.49C-312.92-205.16-312.78-204.62-313.03-204.2z"/>
			<path class="st5" d="M-311.38-207.62c-0.2,0.33-0.55,0.52-0.91,0.52c-0.18,0-0.36-0.05-0.53-0.14c-2.76-1.61-5.94-1.87-8.13-1.8
				c-2.42,0.07-4.2,0.55-4.22,0.56c-0.56,0.15-1.14-0.18-1.29-0.73c-0.15-0.56,0.17-1.13,0.73-1.29c0.08-0.02,1.99-0.54,4.65-0.63
				c1.57-0.05,3.07,0.06,4.48,0.32c1.78,0.34,3.41,0.93,4.83,1.76C-311.26-208.76-311.09-208.12-311.38-207.62z"/>
			<path class="st5" d="M-310.37-210.73c-0.22,0-0.44-0.06-0.65-0.18c-6.55-3.83-15.05-1.55-15.14-1.53
				c-0.69,0.19-1.39-0.21-1.58-0.9c-0.19-0.69,0.21-1.39,0.9-1.58c0.1-0.03,2.44-0.66,5.7-0.77c1.92-0.06,3.77,0.07,5.49,0.4
				c2.18,0.41,4.18,1.14,5.92,2.16c0.61,0.36,0.82,1.15,0.46,1.76C-309.5-210.95-309.93-210.73-310.37-210.73z"/>
		</g>
		<g>
			
				<radialGradient id="SVGID_00000057828172321878272780000003182782218094991269_" cx="-354.6997" cy="-201.4923" r="21" gradientUnits="userSpaceOnUse">
				<stop  offset="0" style="stop-color:#000056"/>
				<stop  offset="0.2482" style="stop-color:#4C4C88;stop-opacity:0.7518"/>
				<stop  offset="0.5193" style="stop-color:#9898BB;stop-opacity:0.4807"/>
				<stop  offset="0.744" style="stop-color:#D0D0E0;stop-opacity:0.256"/>
				<stop  offset="0.9103" style="stop-color:#F2F2F6;stop-opacity:0.0897"/>
				<stop  offset="1" style="stop-color:#FFFFFF;stop-opacity:0"/>
			</radialGradient>
			
				<circle style="opacity:0.8;fill:url(#SVGID_00000057828172321878272780000003182782218094991269_);" cx="-354.7" cy="-201.49" r="21"/>
			
				<linearGradient id="SVGID_00000140729090933987348400000004981816759745995915_" gradientUnits="userSpaceOnUse" x1="-350.8088" y1="-220.3765" x2="-371.4865" y2="-199.6988">
				<stop  offset="0" style="stop-color:#FC4D3F"/>
				<stop  offset="1" style="stop-color:#CD083F"/>
			</linearGradient>
			<circle style="fill:url(#SVGID_00000140729090933987348400000004981816759745995915_);" cx="-361.15" cy="-210.04" r="14.62"/>
			<path class="st10" d="M-362.27-206.86c-0.02,0.05-0.03,0.09-0.04,0.14c-0.65,2.55-0.72,3.12-1.39,4.31
				c-0.32,0.56-0.68,1.1-1.08,1.61c-0.05,0.06-0.09,0.13-0.18,0.11c-0.1-0.02-0.11-0.11-0.12-0.19c-0.11-0.78-0.17-1.55-0.14-2.34
				c0.03-1.02,0.16-1.37,1.48-6.9c0.02-0.08,0-0.15-0.03-0.23c-0.31-0.85-0.38-1.71-0.1-2.59c0.6-1.89,2.73-2.03,3.11-0.47
				c0.23,0.96-0.38,2.22-0.85,4.09c-0.39,1.54,1.42,2.63,2.97,1.51c1.43-1.03,1.98-3.51,1.87-5.27c-0.21-3.5-4.05-4.26-6.49-3.13
				c-2.79,1.29-3.43,4.76-2.17,6.34c0.16,0.2,0.28,0.32,0.23,0.53c-0.08,0.32-0.15,0.64-0.24,0.95c-0.07,0.23-0.26,0.32-0.5,0.22
				c-0.47-0.19-0.85-0.48-1.17-0.87c-1.07-1.33-1.38-3.95,0.04-6.17c1.57-2.46,4.49-3.46,7.15-3.16c3.18,0.36,5.2,2.54,5.57,5.01
				c0.17,1.12,0.05,3.9-1.53,5.86c-1.82,2.25-4.76,2.4-6.12,1.02C-362.09-206.61-362.17-206.73-362.27-206.86z"/>
		</g>
	</g>
	
		<radialGradient id="SVGID_00000005983701059718619850000013981695841757963432_" cx="-70.3311" cy="-528.4261" r="21" gradientUnits="userSpaceOnUse">
		<stop  offset="0" style="stop-color:#000056"/>
		<stop  offset="0.2482" style="stop-color:#4C4C88;stop-opacity:0.7518"/>
		<stop  offset="0.5193" style="stop-color:#9898BB;stop-opacity:0.4807"/>
		<stop  offset="0.744" style="stop-color:#D0D0E0;stop-opacity:0.256"/>
		<stop  offset="0.9103" style="stop-color:#F2F2F6;stop-opacity:0.0897"/>
		<stop  offset="1" style="stop-color:#FFFFFF;stop-opacity:0"/>
	</radialGradient>
	
		<circle style="opacity:0.8;fill:url(#SVGID_00000005983701059718619850000013981695841757963432_);" cx="-70.33" cy="-528.43" r="21"/>
	<g>
		
			<radialGradient id="SVGID_00000072240719141058559730000018193776404242014125_" cx="-113.2127" cy="-486.2134" r="21.5" gradientUnits="userSpaceOnUse">
			<stop  offset="0" style="stop-color:#000056"/>
			<stop  offset="0.2482" style="stop-color:#4C4C88;stop-opacity:0.7518"/>
			<stop  offset="0.5193" style="stop-color:#9898BB;stop-opacity:0.4807"/>
			<stop  offset="0.744" style="stop-color:#D0D0E0;stop-opacity:0.256"/>
			<stop  offset="0.9103" style="stop-color:#F2F2F6;stop-opacity:0.0897"/>
			<stop  offset="1" style="stop-color:#FFFFFF;stop-opacity:0"/>
		</radialGradient>
		
			<circle style="opacity:0.8;fill:url(#SVGID_00000072240719141058559730000018193776404242014125_);" cx="-113.21" cy="-486.21" r="21.5"/>
		<circle cx="-118.45" cy="-494.49" r="14.62"/>
		<path class="st5" d="M-127.4-489.76c0-0.09,0-0.19,0-0.28c0.11-0.13,0.24-0.25,0.42-0.28c1.47-0.29,2.46-1.23,3.2-2.46
			c0.62-1.04,0.52-1.27-0.63-1.68c-0.07-0.02-0.13-0.04-0.2-0.07c-0.25-0.1-0.49-0.21-0.7-0.39c-0.52-0.45-0.21-1.09,0.4-1.24
			c0.44-0.11,0.83,0.18,1.26,0.23c0.29,0.04,0.4-0.06,0.37-0.37c-0.09-0.79-0.09-1.58-0.05-2.38c0.07-1.51,0.81-2.67,2.08-3.41
			c1.84-1.09,3.76-1.1,5.62-0.02c1.16,0.68,1.9,1.71,2.07,3.08c0.11,0.9,0.06,1.79-0.01,2.69c-0.03,0.39,0.05,0.46,0.43,0.37
			c0.48-0.11,0.88-0.36,1.38-0.14c0.27,0.12,0.5,0.37,0.49,0.66c0,0.2-0.12,0.38-0.27,0.51c-0.23,0.2-0.53,0.31-0.81,0.42
			c-0.22,0.09-0.44,0.16-0.65,0.25c-0.43,0.2-0.56,0.47-0.36,0.9c0.7,1.49,1.74,2.62,3.41,3.01c0.2,0.05,0.37,0.13,0.49,0.3
			c0,0.09,0,0.19,0,0.28c-0.16,0.33-0.44,0.51-0.76,0.63c-0.33,0.12-0.66,0.26-1.01,0.29c-0.49,0.03-0.74,0.24-0.81,0.75
			c-0.07,0.48-0.22,0.55-0.71,0.51c-0.12-0.01-0.23-0.03-0.35-0.05c-0.96-0.17-1.86-0.07-2.65,0.56c-0.15,0.12-0.32,0.23-0.49,0.34
			c-1.34,0.87-2.72,0.97-4.12,0.15c-0.38-0.22-0.75-0.48-1.12-0.72c-0.31-0.2-0.64-0.31-1.01-0.37c-0.58-0.09-1.14,0.04-1.71,0.1
			c-0.29,0.03-0.57-0.05-0.59-0.35c-0.04-0.73-0.48-0.9-1.09-0.97c-0.28-0.03-0.57-0.15-0.83-0.26
			C-126.99-489.28-127.26-489.45-127.4-489.76z"/>
	</g>
	<path class="st31" d="M184.54-568.36c-8.08,0-14.62,6.55-14.62,14.62s6.55,14.62,14.62,14.62s14.62-6.55,14.62-14.62
		S192.62-568.36,184.54-568.36z M192.69-558.73c0,0.04,0,0.14-0.08,0.25c-0.37,0.5-0.78,0.95-1.27,1.33
		c-0.07,0.05-0.19,0.11-0.19,0.21c0,2.63-0.67,5.26-2.59,7.17c-2.44,2.43-6.11,3.09-9.37,2.19c-0.63-0.17-1.23-0.42-1.81-0.72
		c-0.19-0.1-0.38-0.21-0.56-0.33c-0.05-0.04-0.08-0.07-0.04-0.1c0.04-0.02,0.07-0.02,0.22,0c0.91,0.09,1.85-0.05,2.71-0.35
		c0.47-0.17,1.49-0.5,1.78-0.95c0.01-0.01,0.01-0.01,0.02-0.02c-0.12-0.03-0.24-0.03-0.36-0.05c-0.88-0.25-2.07-0.7-2.61-2.19
		c-0.03-0.09,0-0.13,0.09-0.11c0.73,0.06,0.99,0.02,1.24-0.04c-0.14-0.02-0.29-0.07-0.42-0.13c-1.11-0.42-1.93-1.51-2.08-2.69
		c-0.02-0.14-0.03-0.25-0.02-0.38c0.01-0.09,0.05-0.11,0.12-0.07c0.57,0.3,1.22,0.37,1.27,0.36c-0.14-0.11-0.27-0.23-0.4-0.36
		c-0.97-0.92-1.34-2.78-0.57-3.94c0.06-0.09,0.1-0.09,0.18-0.01c1.77,2.01,3.94,2.95,6.57,3.34c0.07,0.01,0.08,0,0.07-0.08
		c-0.07-0.46-0.08-0.92,0.03-1.37c0.12-0.47,0.34-0.92,0.65-1.3c0.3-0.37,0.67-0.67,1.09-0.89c0.42-0.22,0.88-0.35,1.35-0.38
		c0.48-0.03,0.97,0.05,1.42,0.23c0.34,0.14,0.64,0.33,0.93,0.57c0.06,0.05,0.11,0.11,0.17,0.17c0.03,0.03,0.08,0.05,0.13,0.03
		c0.67-0.17,1.3-0.4,1.91-0.73c0.03-0.01,0.05-0.02,0.09-0.01c0.03,0.02,0.02,0.06,0,0.08c-0.11,0.36-0.3,0.69-0.54,0.98
		c-0.15,0.19-0.53,0.66-0.79,0.7c0.55-0.09,1.11-0.23,1.61-0.46c0.06-0.03,0.07-0.04,0.07,0
		C192.69-558.74,192.69-558.74,192.69-558.73z"/>
	<g>
		
			<radialGradient id="SVGID_00000005268222376351428170000007967023798110570402_" cx="-27.4494" cy="-486.2134" r="21" gradientUnits="userSpaceOnUse">
			<stop  offset="0" style="stop-color:#000056"/>
			<stop  offset="0.2482" style="stop-color:#4C4C88;stop-opacity:0.7518"/>
			<stop  offset="0.5193" style="stop-color:#9898BB;stop-opacity:0.4807"/>
			<stop  offset="0.744" style="stop-color:#D0D0E0;stop-opacity:0.256"/>
			<stop  offset="0.9103" style="stop-color:#F2F2F6;stop-opacity:0.0897"/>
			<stop  offset="1" style="stop-color:#FFFFFF;stop-opacity:0"/>
		</radialGradient>
		
			<circle style="opacity:0.8;fill:url(#SVGID_00000005268222376351428170000007967023798110570402_);" cx="-27.45" cy="-486.21" r="21"/>
		<ellipse transform="matrix(0.9224 -0.3861 0.3861 0.9224 188.3327 -51.2827)" cx="-33.5" cy="-494.49" rx="14.62" ry="14.62"/>
		<path class="st5" d="M-41.4-486.21l1.22-4.55c-0.69-1.25-1.05-2.64-1.05-4.06c0-4.63,3.77-8.4,8.4-8.4c4.63,0,8.4,3.77,8.4,8.4
			c0,4.63-3.77,8.4-8.4,8.4c-1.39,0-2.76-0.35-3.99-1.02L-41.4-486.21z M-36.6-489.14l0.29,0.17c1.06,0.63,2.26,0.96,3.48,0.96
			c3.76,0,6.81-3.06,6.81-6.81c0-3.76-3.06-6.81-6.81-6.81c-3.76,0-6.81,3.06-6.81,6.81c0,1.24,0.34,2.46,1,3.53l0.18,0.29
			l-0.68,2.54L-36.6-489.14z"/>
		<path class="st10" d="M-29.71-493.65c-0.35-0.21-0.8-0.44-1.2-0.27c-0.31,0.13-0.51,0.62-0.71,0.87c-0.1,0.13-0.23,0.15-0.39,0.08
			c-1.17-0.47-2.07-1.25-2.72-2.33c-0.11-0.17-0.09-0.3,0.04-0.46c0.2-0.23,0.44-0.49,0.49-0.8c0.05-0.31-0.09-0.67-0.22-0.95
			c-0.16-0.35-0.35-0.86-0.7-1.06c-0.33-0.18-0.75-0.08-1.04,0.15c-0.5,0.41-0.74,1.04-0.73,1.68c0,0.18,0.02,0.36,0.07,0.53
			c0.1,0.42,0.29,0.81,0.51,1.18c0.16,0.28,0.34,0.55,0.53,0.81c0.63,0.85,1.41,1.59,2.31,2.15c0.45,0.28,0.94,0.52,1.44,0.69
			c0.56,0.19,1.07,0.38,1.68,0.26c0.64-0.12,1.27-0.52,1.52-1.13c0.07-0.18,0.11-0.39,0.07-0.58
			C-28.85-493.22-29.39-493.46-29.71-493.65z"/>
	</g>
	<g>
		<g>
			<path class="st31" d="M239.11-553.87l-3.85-2.1c-0.16-0.09-0.7,0.02-0.7,0.21v4.09c0,0.18,0.54,0.29,0.69,0.21l4.03-1.99
				C239.44-553.55,239.27-553.78,239.11-553.87z"/>
			<path class="st31" d="M236.73-568.36c-8.08,0-14.62,6.55-14.62,14.62s6.55,14.62,14.62,14.62c8.08,0,14.62-6.55,14.62-14.62
				S244.81-568.36,236.73-568.36z M244.56-551.68c0,1.94-1.57,3.51-3.51,3.51h-8.98c-1.94,0-3.51-1.57-3.51-3.51v-4.18
				c0-1.94,1.57-3.51,3.51-3.51h8.98c1.94,0,3.51,1.57,3.51,3.51V-551.68z"/>
		</g>
		<g>
			<path class="st31" d="M239.11-553.87l-3.85-2.1c-0.16-0.09-0.7,0.02-0.7,0.21v4.09c0,0.18,0.54,0.29,0.69,0.21l4.03-1.99
				C239.44-553.55,239.27-553.78,239.11-553.87z"/>
			<path class="st31" d="M236.73-568.36c-8.08,0-14.62,6.55-14.62,14.62s6.55,14.62,14.62,14.62c8.08,0,14.62-6.55,14.62-14.62
				S244.81-568.36,236.73-568.36z M244.56-551.68c0,1.94-1.57,3.51-3.51,3.51h-8.98c-1.94,0-3.51-1.57-3.51-3.51v-4.18
				c0-1.94,1.57-3.51,3.51-3.51h8.98c1.94,0,3.51,1.57,3.51,3.51V-551.68z"/>
		</g>
	</g>
	<g>
		<g>
			<path class="st31" d="M146.97-553.65c0-8.08-6.55-14.62-14.62-14.62c-8.08,0-14.62,6.55-14.62,14.62
				c0,7.3,5.35,13.35,12.34,14.44v-10.22h-3.71v-4.23h3.71v-3.22c0-3.66,2.18-5.69,5.52-5.69c1.6,0,3.27,0.29,3.27,0.29v3.6h-1.84
				c-1.82,0-2.38,1.13-2.38,2.28v2.74h4.06l-0.65,4.23h-3.41v10.22C141.63-540.3,146.97-546.35,146.97-553.65z"/>
		</g>
		<g>
			<path class="st31" d="M146.97-553.65c0-8.08-6.55-14.62-14.62-14.62c-8.08,0-14.62,6.55-14.62,14.62
				c0,7.3,5.35,13.35,12.34,14.44v-10.22h-3.71v-4.23h3.71v-3.22c0-3.66,2.18-5.69,5.52-5.69c1.6,0,3.27,0.29,3.27,0.29v3.6h-1.84
				c-1.82,0-2.38,1.13-2.38,2.28v2.74h4.06l-0.65,4.23h-3.41v10.22C141.63-540.3,146.97-546.35,146.97-553.65z"/>
		</g>
	</g>
	<path class="st31" d="M83.5-437.36c-8.08,0-14.62,6.55-14.62,14.62s6.55,14.62,14.62,14.62s14.62-6.55,14.62-14.62
		S91.58-437.36,83.5-437.36z M91.65-427.74c0,0.04,0,0.14-0.08,0.25c-0.37,0.5-0.78,0.95-1.27,1.33c-0.07,0.05-0.19,0.11-0.19,0.21
		c0,2.63-0.67,5.26-2.59,7.17c-2.44,2.43-6.11,3.09-9.37,2.19c-0.63-0.17-1.23-0.42-1.81-0.72c-0.19-0.1-0.38-0.21-0.56-0.33
		c-0.05-0.04-0.08-0.07-0.04-0.1c0.04-0.02,0.07-0.02,0.22,0c0.91,0.09,1.85-0.05,2.71-0.35c0.47-0.17,1.49-0.5,1.78-0.95
		c0.01-0.01,0.01-0.01,0.02-0.02c-0.12-0.03-0.24-0.03-0.36-0.05c-0.88-0.25-2.07-0.7-2.61-2.19c-0.03-0.09,0-0.13,0.09-0.11
		c0.73,0.06,0.99,0.02,1.24-0.04c-0.14-0.02-0.29-0.07-0.42-0.13c-1.11-0.42-1.93-1.51-2.08-2.69c-0.02-0.14-0.03-0.25-0.02-0.38
		c0.01-0.09,0.05-0.11,0.12-0.07c0.57,0.3,1.22,0.37,1.27,0.36c-0.14-0.11-0.27-0.23-0.4-0.36c-0.97-0.92-1.34-2.78-0.57-3.94
		c0.06-0.09,0.1-0.09,0.18-0.01c1.77,2.01,3.94,2.95,6.57,3.34c0.07,0.01,0.08,0,0.07-0.08c-0.07-0.46-0.08-0.92,0.03-1.37
		c0.12-0.47,0.34-0.92,0.65-1.3c0.3-0.37,0.67-0.67,1.09-0.89c0.42-0.22,0.88-0.35,1.35-0.38c0.48-0.03,0.97,0.05,1.42,0.23
		c0.34,0.14,0.64,0.33,0.93,0.57c0.06,0.05,0.11,0.11,0.17,0.17c0.03,0.03,0.08,0.05,0.13,0.03c0.67-0.17,1.3-0.4,1.91-0.73
		c0.03-0.01,0.05-0.02,0.09-0.01c0.03,0.02,0.02,0.06,0,0.08c-0.11,0.36-0.3,0.69-0.54,0.98c-0.15,0.19-0.53,0.66-0.79,0.7
		c0.55-0.09,1.11-0.23,1.61-0.46c0.06-0.03,0.07-0.04,0.07,0C91.65-427.75,91.65-427.74,91.65-427.74z"/>
	
		<radialGradient id="SVGID_00000168086341299544504760000010929448011288629171_" cx="-113.2127" cy="-443.0006" r="21.5" gradientUnits="userSpaceOnUse">
		<stop  offset="0" style="stop-color:#000056"/>
		<stop  offset="0.2482" style="stop-color:#4C4C88;stop-opacity:0.7518"/>
		<stop  offset="0.5193" style="stop-color:#9898BB;stop-opacity:0.4807"/>
		<stop  offset="0.744" style="stop-color:#D0D0E0;stop-opacity:0.256"/>
		<stop  offset="0.9103" style="stop-color:#F2F2F6;stop-opacity:0.0897"/>
		<stop  offset="1" style="stop-color:#FFFFFF;stop-opacity:0"/>
	</radialGradient>
	
		<circle style="opacity:0.8;fill:url(#SVGID_00000168086341299544504760000010929448011288629171_);" cx="-113.21" cy="-443" r="21.5"/>
	<circle cx="-118.45" cy="-451.98" r="14.62"/>
	<path class="st5" d="M-124.59-454.71h2.83v9.1h-2.83V-454.71z M-123.17-459.23c0.91,0,1.64,0.73,1.64,1.64
		c0,0.9-0.73,1.64-1.64,1.64c-0.91,0-1.64-0.74-1.64-1.64C-124.81-458.49-124.08-459.23-123.17-459.23"/>
	<path class="st5" d="M-119.98-454.71h2.71v1.24h0.04c0.38-0.72,1.3-1.47,2.68-1.47c2.86,0,3.39,1.88,3.39,4.33v4.99h-2.83v-4.42
		c0-1.06-0.02-2.41-1.47-2.41c-1.47,0-1.7,1.15-1.7,2.34v4.5h-2.83V-454.71z"/>
	
		<radialGradient id="SVGID_00000094603989504959454400000002754523723959103150_" cx="15.0216" cy="-527.9897" r="21" gradientUnits="userSpaceOnUse">
		<stop  offset="0" style="stop-color:#000056"/>
		<stop  offset="0.2482" style="stop-color:#4C4C88;stop-opacity:0.7518"/>
		<stop  offset="0.5193" style="stop-color:#9898BB;stop-opacity:0.4807"/>
		<stop  offset="0.744" style="stop-color:#D0D0E0;stop-opacity:0.256"/>
		<stop  offset="0.9103" style="stop-color:#F2F2F6;stop-opacity:0.0897"/>
		<stop  offset="1" style="stop-color:#FFFFFF;stop-opacity:0"/>
	</radialGradient>
	
		<circle style="opacity:0.8;fill:url(#SVGID_00000094603989504959454400000002754523723959103150_);" cx="15.02" cy="-527.99" r="21"/>
	<g>
		
			<radialGradient id="SVGID_00000173125634881600480950000004828983269179538110_" cx="-70.3311" cy="-443.0006" r="21" gradientUnits="userSpaceOnUse">
			<stop  offset="0" style="stop-color:#000056"/>
			<stop  offset="0.2482" style="stop-color:#4C4C88;stop-opacity:0.7518"/>
			<stop  offset="0.5193" style="stop-color:#9898BB;stop-opacity:0.4807"/>
			<stop  offset="0.744" style="stop-color:#D0D0E0;stop-opacity:0.256"/>
			<stop  offset="0.9103" style="stop-color:#F2F2F6;stop-opacity:0.0897"/>
			<stop  offset="1" style="stop-color:#FFFFFF;stop-opacity:0"/>
		</radialGradient>
		
			<circle style="opacity:0.8;fill:url(#SVGID_00000173125634881600480950000004828983269179538110_);" cx="-70.33" cy="-443" r="21"/>
		<circle cx="-75.98" cy="-451.98" r="14.62"/>
		<path class="st5" d="M-75.98-460.2c-4.54,0-8.22,3.69-8.22,8.21c0,4.53,3.69,8.21,8.22,8.21c4.54,0,8.23-3.68,8.23-8.21
			C-67.76-456.51-71.45-460.2-75.98-460.2L-75.98-460.2z M-70.57-456.32c0.94,1.16,1.51,2.63,1.53,4.23
			c-0.31-0.06-1.63-0.31-3.21-0.31c-0.51,0-1.05,0.03-1.58,0.09c-0.05-0.11-0.09-0.22-0.14-0.33c-0.14-0.33-0.29-0.65-0.45-0.97
			C-71.99-454.61-70.82-456-70.57-456.32L-70.57-456.32z M-75.98-458.91c1.75,0,3.35,0.65,4.58,1.72c-0.19,0.26-1.24,1.58-3.59,2.46
			c-1.09-1.98-2.27-3.63-2.56-4.01C-77.05-458.85-76.52-458.91-75.98-458.91L-75.98-458.91z M-78.97-458.24
			c0.24,0.33,1.43,1.99,2.54,3.96c-2.99,0.79-5.64,0.84-6.28,0.84h-0.07C-82.32-455.56-80.88-457.32-78.97-458.24L-78.97-458.24z
			 M-82.93-451.97c0-0.06,0-0.11,0-0.17c0.04,0,0.1,0,0.18,0c0.86,0,3.86-0.07,6.94-0.99c0.19,0.37,0.37,0.74,0.53,1.11
			c-0.08,0.02-0.15,0.04-0.23,0.07c-3.47,1.12-5.38,4.09-5.68,4.58C-82.27-448.6-82.93-450.21-82.93-451.97L-82.93-451.97z
			 M-75.98-445.03c-1.59,0-3.06-0.54-4.24-1.44c0.2-0.39,1.64-2.98,5.45-4.31c0,0,0,0,0.01,0c0.95,2.48,1.36,4.57,1.47,5.22
			C-74.13-445.22-75.03-445.03-75.98-445.03L-75.98-445.03z M-72.05-446.26c-0.09-0.53-0.47-2.49-1.33-4.87
			c0.48-0.08,0.96-0.11,1.4-0.11c1.45,0,2.59,0.32,2.85,0.4C-69.44-448.94-70.53-447.3-72.05-446.26L-72.05-446.26z"/>
	</g>
	<g>
		
			<radialGradient id="SVGID_00000033326718059140319460000004686348646655010737_" cx="15.4322" cy="-486.2134" r="21" gradientUnits="userSpaceOnUse">
			<stop  offset="0" style="stop-color:#000056"/>
			<stop  offset="0.2482" style="stop-color:#4C4C88;stop-opacity:0.7518"/>
			<stop  offset="0.5193" style="stop-color:#9898BB;stop-opacity:0.4807"/>
			<stop  offset="0.744" style="stop-color:#D0D0E0;stop-opacity:0.256"/>
			<stop  offset="0.9103" style="stop-color:#F2F2F6;stop-opacity:0.0897"/>
			<stop  offset="1" style="stop-color:#FFFFFF;stop-opacity:0"/>
		</radialGradient>
		
			<circle style="opacity:0.8;fill:url(#SVGID_00000033326718059140319460000004686348646655010737_);" cx="15.43" cy="-486.21" r="21"/>
		<circle cx="8.98" cy="-494.49" r="14.62"/>
		<path class="st5" d="M9.8-491.86c0,0.45-0.09,0.84-0.27,1.17c-0.18,0.34-0.42,0.62-0.73,0.85c-0.31,0.23-0.67,0.4-1.08,0.52
			c-0.41,0.12-0.85,0.18-1.31,0.18H1.31v-10.54h5.64c0.37,0,0.7,0.08,0.99,0.24c0.3,0.16,0.55,0.36,0.76,0.62
			c0.21,0.25,0.37,0.54,0.48,0.86c0.11,0.32,0.17,0.65,0.17,0.97c0,0.51-0.13,1-0.39,1.45c-0.26,0.45-0.63,0.78-1.13,1
			c0.6,0.18,1.08,0.5,1.43,0.96C9.62-493.13,9.8-492.55,9.8-491.86z M3.36-497.93v2.66h2.73c0.35,0,0.64-0.12,0.88-0.36
			c0.24-0.24,0.36-0.56,0.36-0.98c0-0.41-0.11-0.73-0.33-0.96c-0.22-0.24-0.5-0.36-0.82-0.36H3.36z M7.74-492.25
			c0-0.19-0.03-0.37-0.1-0.54c-0.06-0.17-0.15-0.32-0.26-0.45c-0.11-0.13-0.24-0.23-0.39-0.3c-0.15-0.07-0.31-0.11-0.49-0.11H3.36
			v2.77H6.4c0.19,0,0.36-0.03,0.53-0.1c0.16-0.07,0.3-0.17,0.42-0.29c0.12-0.12,0.21-0.27,0.28-0.44
			C7.7-491.88,7.74-492.06,7.74-492.25z"/>
		<path class="st5" d="M14.23-489.15c-0.6,0-1.15-0.1-1.64-0.31c-0.97-0.41-1.65-1.1-2.05-2.08c-0.19-0.47-0.28-0.96-0.28-1.48
			c0-0.54,0.09-1.04,0.27-1.52c0.39-0.99,1.07-1.69,2.05-2.11c0.49-0.21,1.05-0.32,1.66-0.32c0.61,0,1.16,0.11,1.65,0.32
			c1.59,0.69,2.34,2.24,2.27,3.91c0,0.11-0.02,0.21-0.04,0.29h-5.82c0.03,0.3,0.1,0.56,0.22,0.79c0.12,0.23,0.26,0.43,0.45,0.59
			c0.18,0.16,0.39,0.29,0.62,0.37c0.23,0.09,0.47,0.13,0.72,0.13c0.38,0,0.75-0.09,1.09-0.28c0.34-0.19,0.57-0.43,0.7-0.74
			l1.65,0.46c-0.28,0.58-0.72,1.05-1.33,1.42C15.8-489.33,15.08-489.15,14.23-489.15z M16.19-493.69c-0.05-0.57-0.26-1.02-0.63-1.36
			c-0.37-0.34-0.82-0.51-1.34-0.51c-0.26,0-0.5,0.05-0.73,0.14c-0.23,0.09-0.42,0.22-0.6,0.38c-0.17,0.16-0.31,0.36-0.42,0.59
			c-0.11,0.23-0.18,0.48-0.19,0.76L16.19-493.69L16.19-493.69z"/>
		<path class="st5" d="M11.7-499.18h5.04v1.25H11.7V-499.18z"/>
	</g>
	<g>
		
			<radialGradient id="SVGID_00000034804842816663543150000005444782102690491051_" cx="15.4322" cy="-443.0006" r="21" gradientUnits="userSpaceOnUse">
			<stop  offset="0" style="stop-color:#000056"/>
			<stop  offset="0.2482" style="stop-color:#4C4C88;stop-opacity:0.7518"/>
			<stop  offset="0.5193" style="stop-color:#9898BB;stop-opacity:0.4807"/>
			<stop  offset="0.744" style="stop-color:#D0D0E0;stop-opacity:0.256"/>
			<stop  offset="0.9103" style="stop-color:#F2F2F6;stop-opacity:0.0897"/>
			<stop  offset="1" style="stop-color:#FFFFFF;stop-opacity:0"/>
		</radialGradient>
		
			<circle style="opacity:0.8;fill:url(#SVGID_00000034804842816663543150000005444782102690491051_);" cx="15.43" cy="-443" r="21"/>
		<circle cx="8.98" cy="-451.98" r="14.62"/>
		<path class="st5" d="M14.62-446.14c-0.16,0.28-0.46,0.44-0.77,0.44c-0.15,0-0.31-0.04-0.45-0.12c-2.33-1.36-5.02-1.58-6.86-1.52
			c-2.04,0.06-3.54,0.47-3.56,0.47c-0.47,0.13-0.96-0.15-1.09-0.62c-0.13-0.47,0.15-0.96,0.62-1.09c0.07-0.02,1.68-0.46,3.93-0.53
			c1.32-0.04,2.59,0.05,3.78,0.27c1.5,0.29,2.88,0.79,4.08,1.49C14.72-447.1,14.87-446.56,14.62-446.14z"/>
		<path class="st5" d="M16.27-449.56c-0.19,0.33-0.55,0.52-0.91,0.52c-0.18,0-0.36-0.05-0.53-0.14c-2.76-1.61-5.94-1.87-8.13-1.8
			c-2.42,0.07-4.2,0.55-4.22,0.56c-0.56,0.15-1.14-0.18-1.29-0.73c-0.15-0.56,0.17-1.13,0.73-1.29c0.08-0.02,1.99-0.54,4.65-0.63
			c1.57-0.05,3.07,0.06,4.48,0.32c1.78,0.34,3.41,0.93,4.83,1.76C16.39-450.7,16.56-450.06,16.27-449.56z"/>
		<path class="st5" d="M17.28-452.67c-0.22,0-0.44-0.06-0.65-0.18c-6.55-3.83-15.05-1.55-15.14-1.53c-0.69,0.19-1.39-0.21-1.58-0.9
			c-0.19-0.69,0.21-1.39,0.9-1.58c0.1-0.03,2.44-0.66,5.7-0.77c1.92-0.06,3.77,0.07,5.49,0.4c2.18,0.41,4.18,1.14,5.92,2.16
			c0.61,0.36,0.82,1.15,0.46,1.76C18.15-452.89,17.72-452.67,17.28-452.67z"/>
	</g>
	<g>
		
			<radialGradient id="SVGID_00000019643209033142977950000017128075614612575405_" cx="-27.0518" cy="-443.4327" r="21" gradientUnits="userSpaceOnUse">
			<stop  offset="0" style="stop-color:#000056"/>
			<stop  offset="0.2482" style="stop-color:#4C4C88;stop-opacity:0.7518"/>
			<stop  offset="0.5193" style="stop-color:#9898BB;stop-opacity:0.4807"/>
			<stop  offset="0.744" style="stop-color:#D0D0E0;stop-opacity:0.256"/>
			<stop  offset="0.9103" style="stop-color:#F2F2F6;stop-opacity:0.0897"/>
			<stop  offset="1" style="stop-color:#FFFFFF;stop-opacity:0"/>
		</radialGradient>
		
			<circle style="opacity:0.8;fill:url(#SVGID_00000019643209033142977950000017128075614612575405_);" cx="-27.05" cy="-443.43" r="21"/>
		<ellipse transform="matrix(0.9224 -0.3861 0.3861 0.9224 171.919 -47.9861)" cx="-33.5" cy="-451.98" rx="14.62" ry="14.62"/>
		<path class="st10" d="M-34.62-448.8c-0.01,0.05-0.03,0.09-0.04,0.14c-0.65,2.55-0.72,3.12-1.39,4.31
			c-0.32,0.56-0.68,1.1-1.08,1.61c-0.05,0.06-0.09,0.13-0.18,0.11c-0.1-0.02-0.11-0.11-0.12-0.19c-0.11-0.78-0.17-1.55-0.14-2.34
			c0.03-1.02,0.16-1.37,1.48-6.9c0.02-0.08,0-0.15-0.03-0.23c-0.31-0.85-0.38-1.71-0.1-2.59c0.6-1.89,2.73-2.03,3.11-0.47
			c0.23,0.96-0.38,2.22-0.85,4.09c-0.39,1.54,1.42,2.63,2.97,1.51c1.43-1.03,1.98-3.51,1.87-5.27c-0.21-3.5-4.05-4.26-6.49-3.13
			c-2.79,1.29-3.43,4.76-2.17,6.34c0.16,0.2,0.28,0.32,0.23,0.53c-0.08,0.32-0.15,0.64-0.24,0.95c-0.07,0.23-0.26,0.32-0.5,0.22
			c-0.47-0.19-0.85-0.48-1.17-0.87c-1.07-1.33-1.38-3.95,0.04-6.17c1.57-2.46,4.49-3.46,7.15-3.16c3.18,0.36,5.2,2.54,5.57,5.01
			c0.17,1.12,0.05,3.9-1.53,5.86c-1.82,2.25-4.76,2.4-6.12,1.02C-34.44-448.55-34.52-448.67-34.62-448.8z"/>
	</g>
	<g>
		<g>
			<defs>
				<rect id="SVGID_00000094620427106727433890000006597924687147568788_" x="-747" y="-1005.14" width="1271.67" height="365.03"/>
			</defs>
			<clipPath id="SVGID_00000176746093210283981480000017778095002466621878_">
				<use xlink:href="#SVGID_00000094620427106727433890000006597924687147568788_"  style="overflow:visible;"/>
			</clipPath>
			
				<rect x="-747" y="-720.54" style="clip-path:url(#SVGID_00000176746093210283981480000017778095002466621878_);" width="14.67" height="78.97"/>
			<polygon style="clip-path:url(#SVGID_00000176746093210283981480000017778095002466621878_);" points="-652.91,-720.54 
				-652.91,-706.55 -674.68,-706.55 -674.68,-641.57 -689.35,-641.57 -689.35,-706.55 -711.01,-706.55 -711.01,-720.54 			"/>
			<polygon style="clip-path:url(#SVGID_00000176746093210283981480000017778095002466621878_);" points="-575.18,-720.54 
				-575.18,-706.55 -596.95,-706.55 -596.95,-641.57 -611.62,-641.57 -611.62,-706.55 -633.28,-706.55 -633.28,-720.54 			"/>
			
				<rect x="-553.86" y="-720.54" style="clip-path:url(#SVGID_00000176746093210283981480000017778095002466621878_);" width="14.67" height="78.97"/>
			<polygon style="clip-path:url(#SVGID_00000176746093210283981480000017778095002466621878_);" points="-459.54,-688.95 
				-459.54,-720.54 -444.88,-720.54 -444.88,-641.57 -459.54,-641.57 -459.54,-675.08 -495.98,-675.08 -495.98,-641.57 
				-510.76,-641.57 -510.76,-720.54 -495.98,-720.54 -495.98,-688.95 			"/>
			<path style="clip-path:url(#SVGID_00000176746093210283981480000017778095002466621878_);" d="M-351.69-641.57h-15.68
				l-5.87-15.91h-31.25l-5.87,15.91h-15.79l29.33-78.97h15.79L-351.69-641.57z M-388.81-699.45l-10.49,27.98h20.87L-388.81-699.45z"
				/>
		</g>
		<g>
			<defs>
				<rect id="SVGID_00000069374120020887281180000000859791940433981883_" x="-747" y="-1005.14" width="1271.67" height="365.03"/>
			</defs>
			<clipPath id="SVGID_00000127762276479207284400000015176248423492474527_">
				<use xlink:href="#SVGID_00000069374120020887281180000000859791940433981883_"  style="overflow:visible;"/>
			</clipPath>
			<path style="clip-path:url(#SVGID_00000127762276479207284400000015176248423492474527_);" d="M-280.9-715.3
				c6.21,3.5,11.11,8.27,14.72,14.33c3.61,6.05,5.41,12.77,5.41,20.14c0,7.37-1.8,14.04-5.41,20.02
				c-3.61,5.98-8.52,10.68-14.72,14.1c-6.21,3.42-12.99,5.13-20.36,5.13h-31.36v-78.97h31.36
				C-293.89-720.54-287.1-718.79-280.9-715.3 M-301.26-655.56c4.74,0,9.06-1.11,12.97-3.33c3.91-2.22,7.01-5.28,9.31-9.2
				c2.29-3.91,3.44-8.2,3.44-12.86c0-4.66-1.15-8.97-3.44-12.92c-2.29-3.95-5.4-7.05-9.31-9.31c-3.91-2.26-8.23-3.39-12.97-3.39
				h-16.58v50.99H-301.26z"/>
			
				<rect x="-237.75" y="-720.54" style="clip-path:url(#SVGID_00000127762276479207284400000015176248423492474527_);" width="14.67" height="78.97"/>
			<polygon style="clip-path:url(#SVGID_00000127762276479207284400000015176248423492474527_);" points="-166.33,-686.81 
				-147.27,-720.54 -130.57,-720.54 -159,-669.78 -159,-641.57 -173.78,-641.57 -173.78,-670 -202.21,-720.54 -185.51,-720.54 			
				"/>
			<path style="clip-path:url(#SVGID_00000127762276479207284400000015176248423492474527_);" d="M-102.48-645.58
				c-6.24-3.65-11.19-8.59-14.83-14.83c-3.65-6.24-5.47-13.05-5.47-20.42c0-7.37,1.82-14.18,5.47-20.42
				c3.65-6.24,8.59-11.19,14.83-14.84c6.24-3.65,13.05-5.47,20.42-5.47c7.37,0,14.18,1.82,20.42,5.47
				c6.24,3.65,11.19,8.59,14.83,14.84c3.65,6.24,5.47,13.05,5.47,20.42c0,7.37-1.82,14.18-5.47,20.42
				c-3.65,6.24-8.59,11.19-14.83,14.83c-6.24,3.65-13.05,5.47-20.42,5.47C-89.43-640.11-96.24-641.93-102.48-645.58 M-69.09-658.38
				c3.99-2.33,7.14-5.49,9.48-9.48c2.33-3.99,3.5-8.31,3.5-12.97c0-4.66-1.17-8.99-3.5-12.97c-2.33-3.99-5.49-7.14-9.48-9.48
				c-3.99-2.33-8.31-3.5-12.97-3.5c-4.66,0-9.01,1.17-13.03,3.5c-4.03,2.33-7.2,5.49-9.53,9.48c-2.33,3.99-3.5,8.31-3.5,12.97
				c0,4.66,1.16,8.99,3.5,12.97c2.33,3.99,5.51,7.15,9.53,9.48c4.02,2.33,8.37,3.5,13.03,3.5
				C-77.4-654.88-73.07-656.05-69.09-658.38"/>
			<path style="clip-path:url(#SVGID_00000127762276479207284400000015176248423492474527_);" d="M26.13-720.54h14.78v52.35
				c0,5.49-1.32,10.36-3.95,14.61c-2.63,4.25-6.24,7.56-10.83,9.93c-4.59,2.37-9.78,3.55-15.57,3.55c-5.79,0-10.98-1.18-15.57-3.55
				c-4.59-2.37-8.2-5.68-10.83-9.93c-2.63-4.25-3.95-9.12-3.95-14.61v-52.35h14.78v52.35c0,4.06,1.48,7.32,4.46,9.76
				c2.97,2.45,6.67,3.67,11.11,3.67c4.74,0,8.52-1.2,11.34-3.61c2.82-2.41,4.23-5.68,4.23-9.81V-720.54z"/>
			<polygon style="clip-path:url(#SVGID_00000127762276479207284400000015176248423492474527_);" points="113.23,-670.9 
				113.23,-720.54 128,-720.54 128,-641.57 115.37,-641.57 81.07,-695.05 81.07,-641.57 66.29,-641.57 66.29,-720.54 81.07,-720.54 
							"/>
			
				<rect x="349.67" y="-816.56" style="clip-path:url(#SVGID_00000127762276479207284400000015176248423492474527_);fill:#C10E1A;" width="175" height="175"/>
			
				<rect x="174.67" y="-816.56" style="clip-path:url(#SVGID_00000127762276479207284400000015176248423492474527_);fill:#EFC515;" width="175" height="175"/>
			
				<rect x="349.67" y="-991.56" style="clip-path:url(#SVGID_00000127762276479207284400000015176248423492474527_);fill:#518E3F;" width="175" height="175"/>
			
				<rect x="174.67" y="-991.56" style="clip-path:url(#SVGID_00000127762276479207284400000015176248423492474527_);fill:#2B4A8E;" width="175" height="175"/>
			
				<rect x="303" y="-991.56" style="clip-path:url(#SVGID_00000127762276479207284400000015176248423492474527_);fill:#FFFFFF;" width="11.67" height="11.67"/>
			
				<rect x="373" y="-991.56" style="clip-path:url(#SVGID_00000127762276479207284400000015176248423492474527_);fill:#FFFFFF;" width="11.67" height="11.67"/>
			
				<rect x="408" y="-991.56" style="clip-path:url(#SVGID_00000127762276479207284400000015176248423492474527_);fill:#FFFFFF;" width="11.67" height="11.67"/>
			<polygon style="clip-path:url(#SVGID_00000127762276479207284400000015176248423492474527_);fill:#FFFFFF;" points="303,-968.23 
				303,-979.89 291.34,-979.89 279.67,-979.89 279.67,-968.23 291.34,-968.23 			"/>
			<polygon style="clip-path:url(#SVGID_00000127762276479207284400000015176248423492474527_);fill:#FFFFFF;" points="
				396.34,-968.23 408,-968.23 408,-979.89 396.34,-979.89 384.67,-979.89 384.67,-968.23 			"/>
			
				<rect x="279.67" y="-956.56" style="clip-path:url(#SVGID_00000127762276479207284400000015176248423492474527_);fill:#FFFFFF;" width="11.67" height="11.67"/>
			<polygon style="clip-path:url(#SVGID_00000127762276479207284400000015176248423492474527_);fill:#FFFFFF;" points="443,-956.56 
				443,-968.23 443,-979.89 443,-991.56 431.34,-991.56 431.34,-979.89 431.34,-968.23 431.34,-956.56 431.34,-944.89 443,-944.89 
							"/>
			<path style="clip-path:url(#SVGID_00000127762276479207284400000015176248423492474527_);fill:#FFFFFF;" d="M209.67-921.56h11.67
				H233h11.67v-11.67v-11.67v-11.67v-11.67v-11.67H233h-11.67h-11.67H198h-11.67v11.67v11.67v11.67v11.67v11.67H198H209.67z
				 M198-944.89v-11.67v-11.67h11.67h11.67H233v11.67v11.67v11.67h-11.67h-11.67H198V-944.89z"/>
			<path style="clip-path:url(#SVGID_00000127762276479207284400000015176248423492474527_);fill:#FFFFFF;" d="M478-921.56h11.67
				h11.67H513v-11.67v-11.67v-11.67v-11.67v-11.67h-11.67h-11.67H478h-11.67h-11.67v11.67v11.67v11.67v11.67v11.67h11.67H478z
				 M466.34-944.89v-11.67v-11.67H478h11.67h11.67v11.67v11.67v11.67h-11.67H478h-11.67V-944.89z"/>
			<polygon style="clip-path:url(#SVGID_00000127762276479207284400000015176248423492474527_);fill:#FFFFFF;" points="198,-898.23 
				209.67,-898.23 221.34,-898.23 221.34,-886.56 221.34,-874.89 233,-874.89 233,-886.56 233,-898.23 244.67,-898.23 
				256.34,-898.23 268,-898.23 268,-909.89 268,-921.56 268,-933.23 268,-944.89 268,-956.56 268,-968.23 268,-979.89 268,-991.56 
				256.34,-991.56 256.34,-979.89 256.34,-968.23 256.34,-956.56 256.34,-944.89 256.34,-933.23 256.34,-921.56 256.34,-909.89 
				244.67,-909.89 233,-909.89 221.34,-909.89 209.67,-909.89 198,-909.89 186.34,-909.89 174.67,-909.89 174.67,-898.23 
				186.34,-898.23 			"/>
			<polygon style="clip-path:url(#SVGID_00000127762276479207284400000015176248423492474527_);fill:#FFFFFF;" points="
				221.34,-851.56 221.34,-863.23 209.67,-863.23 209.67,-874.89 209.67,-886.56 198,-886.56 198,-874.89 198,-863.23 198,-851.56 
				209.67,-851.56 			"/>
			<polygon style="clip-path:url(#SVGID_00000127762276479207284400000015176248423492474527_);fill:#FFFFFF;" points="
				489.67,-851.56 501.34,-851.56 501.34,-863.23 501.34,-874.89 501.34,-886.56 489.67,-886.56 478,-886.56 478,-874.89 
				489.67,-874.89 489.67,-863.23 			"/>
			<polygon style="clip-path:url(#SVGID_00000127762276479207284400000015176248423492474527_);fill:#FFFFFF;" points="198,-828.23 
				198,-816.56 209.67,-816.56 209.67,-828.23 209.67,-839.89 198,-839.89 			"/>
			<polygon style="clip-path:url(#SVGID_00000127762276479207284400000015176248423492474527_);fill:#FFFFFF;" points="198,-781.56 
				198,-793.23 186.34,-793.23 174.67,-793.23 174.67,-781.56 186.34,-781.56 			"/>
			
				<rect x="443" y="-723.23" style="clip-path:url(#SVGID_00000127762276479207284400000015176248423492474527_);fill:#FFFFFF;" width="11.67" height="11.67"/>
			<polygon style="clip-path:url(#SVGID_00000127762276479207284400000015176248423492474527_);fill:#FFFFFF;" points="
				221.34,-699.89 221.34,-688.22 233,-688.22 244.67,-688.22 244.67,-699.89 233,-699.89 			"/>
			<polygon style="clip-path:url(#SVGID_00000127762276479207284400000015176248423492474527_);fill:#FFFFFF;" points="
				489.67,-699.89 478,-699.89 478,-688.22 489.67,-688.22 489.67,-676.56 501.34,-676.56 501.34,-664.89 501.34,-653.22 
				513,-653.22 513,-664.89 513,-676.56 513,-688.22 513,-699.89 501.34,-699.89 			"/>
			<polygon style="clip-path:url(#SVGID_00000127762276479207284400000015176248423492474527_);fill:#FFFFFF;" points="
				209.67,-664.89 209.67,-676.56 198,-676.56 198,-688.22 198,-699.89 186.34,-699.89 174.67,-699.89 174.67,-688.22 
				186.34,-688.22 186.34,-676.56 186.34,-664.89 186.34,-653.22 198,-653.22 209.67,-653.22 221.34,-653.22 233,-653.22 
				233,-664.89 221.34,-664.89 			"/>
			<polygon style="clip-path:url(#SVGID_00000127762276479207284400000015176248423492474527_);fill:#FFFFFF;" points="
				314.67,-653.23 303,-653.23 303,-641.56 314.67,-641.56 326.34,-641.56 326.34,-653.23 326.34,-664.89 314.67,-664.89 			"/>
			<polygon style="clip-path:url(#SVGID_00000127762276479207284400000015176248423492474527_);fill:#FFFFFF;" points="
				466.34,-653.23 466.34,-641.56 478,-641.56 478,-653.23 478,-664.89 466.34,-664.89 			"/>
			<polygon style="clip-path:url(#SVGID_00000127762276479207284400000015176248423492474527_);fill:#FFFFFF;" points="513,-909.89 
				501.34,-909.89 489.67,-909.89 478,-909.89 466.34,-909.89 454.67,-909.89 454.67,-898.22 466.34,-898.22 478,-898.22 
				489.67,-898.22 501.34,-898.22 513,-898.22 524.67,-898.22 524.67,-909.89 			"/>
			<polygon style="clip-path:url(#SVGID_00000127762276479207284400000015176248423492474527_);fill:#FFFFFF;" points="513,-828.23 
				513,-816.56 524.67,-816.56 524.67,-828.23 524.67,-839.89 513,-839.89 			"/>
			
				<rect x="513" y="-804.89" style="clip-path:url(#SVGID_00000127762276479207284400000015176248423492474527_);fill:#FFFFFF;" width="11.67" height="11.67"/>
			<path style="clip-path:url(#SVGID_00000127762276479207284400000015176248423492474527_);fill:#FFFFFF;" d="M501.34-746.56
				h-11.67v-11.67H478h-11.67v-11.67v-11.67H478v11.67h11.67h11.67v-11.67h-11.67v-11.67H478v-11.67h-11.67h-11.67v-11.67h11.67H478
				h11.67v-11.67H478h-11.67v-11.67H478v-11.67h-11.67h-11.67v-11.67H443v-11.67h-11.67v-11.67h-11.67H408v-11.67h11.67h11.67H443
				v-11.67h-11.67h-11.67v-11.67h11.67v-11.67h-11.67H408v-11.67h-11.67h-11.67H373v-11.67h-11.67v-11.67v-11.67h-11.67v11.67H338
				v11.67h-11.67v11.67h-11.67v11.67v11.67h11.67v11.67H338v11.67v11.67h-11.67h-11.67v-11.67h11.67v-11.67h-11.67v-11.67H303v11.67
				v11.67h-11.67v11.67h-11.67H268v11.67h-11.67v11.67H268h11.67v11.67v11.67H268v11.67h-11.67h-11.67v11.67H233v11.67h-11.67v11.67
				H233h11.67v-11.67h11.67H268v11.67h-11.67v11.67h-11.67H233v11.67h-11.67v11.67h-11.67H198v11.67h11.67h11.67H233v-11.67h11.67
				h11.67H268v11.67h-11.67h-11.67H233v11.67h-11.67h-11.67v11.67h11.67H233h11.67h11.67v-11.67H268h11.67v-11.67h11.67H303h11.67
				v11.67v11.67v11.67H303v11.67h-11.67v11.67h-11.67H268v11.67h11.67h11.67H303v-11.67h11.67h11.67v-11.67H338h11.67v11.67h11.67
				v11.67H373v11.67h11.67v-11.67v-11.67h11.67v11.67H408v11.67h11.67h11.67v-11.67h-11.67v-11.67H408v-11.67h-11.67v-11.67h-11.67
				v-11.67v-11.67h11.67v-11.67H408h11.67v-11.67h11.67H443v11.67h11.67h11.67H478v11.67h11.67v11.67h11.67H513v-11.67h-11.67
				V-746.56z M384.67-909.89h11.67v11.67h-11.67V-909.89z M361.34-921.56H373v11.67h-11.67V-921.56z M291.34-804.89h-11.67v-11.67
				h11.67H303v11.67H291.34z M314.67-781.56v11.67H303v-11.67v-11.67h11.67V-781.56z M314.67-839.89H303h-11.67v-11.67H303h11.67
				V-839.89z M314.67-863.23H303v-11.67h11.67h11.67v11.67H314.67z M338-781.56h-11.67v-11.67H338V-781.56z M338-828.23h-11.67
				v-11.67H338V-828.23z M338-874.89h11.67v11.67H338V-874.89z M361.34-769.89h-11.67v-11.67h11.67V-769.89z M361.34-886.56H373
				v11.67h-11.67V-886.56z M396.34-758.23h-11.67H373v-11.67h11.67h11.67V-758.23z M396.34-816.56h-11.67H373v-11.67h11.67h11.67
				V-816.56z M396.34-863.23h-11.67v-11.67h11.67H408v11.67H396.34z M419.67-793.23v11.67H408v-11.67v-11.67h11.67h11.67v11.67
				H419.67z M454.67-781.56v11.67H443h-11.67v-11.67H443v-11.67h11.67V-781.56z"/>
			
				<rect x="256.34" y="-676.56" style="clip-path:url(#SVGID_00000127762276479207284400000015176248423492474527_);fill:#FFFFFF;" width="11.67" height="11.67"/>
			<path style="clip-path:url(#SVGID_00000127762276479207284400000015176248423492474527_);" d="M-638.5-840.78
				c0,14.4-11.79,21.59-35.36,21.59c-23.57,0-35.36-7.2-35.36-21.59v-104.87H-747v106.49c0,7.2,1.35,14.17,4.05,20.92
				c2.7,6.75,6.75,13.09,12.15,19.03c5.4,5.94,13,10.7,22.81,14.3c9.81,3.6,21.19,5.4,34.14,5.4s24.33-1.8,34.14-5.4
				c9.81-3.6,17.41-8.37,22.81-14.3c5.4-5.94,9.45-12.28,12.15-19.03c2.7-6.75,4.05-13.72,4.05-20.92v-106.49h-37.79V-840.78z"/>
			<polygon style="clip-path:url(#SVGID_00000127762276479207284400000015176248423492474527_);" points="-649.02,-983.82 
				-672.5,-1005.14 -695.99,-983.82 -672.5,-962.76 			"/>
			<polygon style="clip-path:url(#SVGID_00000127762276479207284400000015176248423492474527_);" points="-403.96,-788.95 
				-421.5,-804.61 -444.98,-783.56 -421.5,-762.23 -403.96,-778.43 -386.14,-762.23 -362.66,-783.56 -386.14,-804.61 			"/>
			<path style="clip-path:url(#SVGID_00000127762276479207284400000015176248423492474527_);" d="M-443.63-821.61h29.69
				c30.59,0,45.88-14.66,45.88-43.99v-81.78h-37.79v78.81c0,3.78-0.81,6.25-2.43,7.42c-1.62,1.17-4.23,1.75-7.83,1.75h-27.53h-1.35
				h-21.59v-87.99h-58.84c-10.98,0-20.33,1.85-28.07,5.53c-7.74,3.69-13.54,8.77-17.41,15.25c-3.87,6.48-6.61,13.09-8.23,19.84
				c-1.62,6.75-2.43,14.08-2.43,22c0,15.3,5.04,29.65,15.11,43.05c10.08,13.41,22.58,20.11,37.52,20.11h24.29
				c-4.14,17.09-21.23,29.6-51.28,37.52l40.76,21.05c9.35-3.96,17.45-8.82,24.29-14.57c6.84-5.76,11.88-11.47,15.11-17.14
				c3.24-5.67,5.58-10.71,7.02-15.11c1.44-4.41,2.16-8.33,2.16-11.74h21.59H-443.63z M-504.36-859.4h-21.05
				c-5.4,0-9.81-2.65-13.22-7.96c-3.42-5.3-5.13-11.11-5.13-17.41c0-16.55,6.11-24.83,18.35-24.83h21.05V-859.4z"/>
			<path style="clip-path:url(#SVGID_00000127762276479207284400000015176248423492474527_);" d="M-232.84-909.73
				c-0.9-5.13-2.25-9.27-4.05-12.42c-1.8-3.15-4.41-6.52-7.83-10.12c-3.42-3.6-7.6-6.34-12.55-8.23
				c-4.95-1.89-11.16-3.51-18.62-4.86c-7.47-1.35-15.97-2.02-25.51-2.02h-33.74v37.79h35.63c7.02,0,12.64,0.5,16.87,1.48
				c4.23,0.99,7.29,2.74,9.18,5.26c1.89,2.52,3.06,5.09,3.51,7.69c0.45,2.61,0.68,6.52,0.68,11.74v24.02h-77.19v37.79h115.52v-61
				c0-5.94-0.09-10.66-0.27-14.17C-231.4-900.29-231.94-904.61-232.84-909.73"/>
			<polygon style="clip-path:url(#SVGID_00000127762276479207284400000015176248423492474527_);" points="41.64,-977.88 
				59.45,-962.23 82.93,-983.28 59.45,-1004.6 41.64,-988.41 24.09,-1004.6 0.61,-983.28 24.09,-962.23 			"/>
			<path style="clip-path:url(#SVGID_00000127762276479207284400000015176248423492474527_);" d="M22.74-868.57
				c0,3.78-0.81,6.26-2.43,7.42c-1.62,1.17-4.23,1.75-7.83,1.75H-0.73h-2.7h-8.36c-4.32,0-7.92-1.3-10.8-3.91
				c-2.88-2.61-4.99-5.58-6.34-8.91c-1.35-3.33-2.83-7.96-4.45-13.9c-3.96-14.93-7.2-25.1-9.72-30.5
				c-9.9-20.51-28.61-30.77-56.14-30.77h-22.4l-13.23,37.25h24.56h2.97c4.32,0,7.47,0.05,9.45,0.14c1.98,0.09,4.59,0.54,7.83,1.35
				c3.24,0.81,5.76,2.07,7.56,3.78c1.8,1.71,3.73,4.23,5.8,7.56c2.07,3.33,3.91,7.52,5.53,12.55c0.36,1.26,1.22,4.86,2.56,10.8
				c1.35,5.94,2.83,10.8,4.45,14.57h-82.32h-1.35h-12.14c-3.42,0-5.98-0.63-7.69-1.89c-1.71-1.26-2.57-3.78-2.57-7.56v-122.71
				h-37.78v125.96c0,29.33,15.29,43.99,45.88,43.99h14.3h1.35H-3.44h2.7h15.38c30.59,0,45.88-14.66,45.88-43.99v-81.78H22.74
				V-868.57z"/>
			<polygon style="clip-path:url(#SVGID_00000127762276479207284400000015176248423492474527_);" points="128,-991.56 
				90.22,-991.56 90.22,-817.56 128,-831.33 			"/>
			<path style="clip-path:url(#SVGID_00000127762276479207284400000015176248423492474527_);" d="M107.26-794.12
				c0-3.87,2.45-5.81,7.36-5.81c2.33,0,4.78,0.58,7.36,1.74l0.58,0.39l5.43-11.24l-0.58-0.39c-3.88-1.81-8.01-2.71-12.4-2.71
				c-5.56,0-10.34,1.55-14.34,4.65c-4.01,3.1-6.01,7.56-6.01,13.37c0,1.42,0.39,3.29,1.16,5.62h-5.62v11.63H128v-11.63h-15.32
				C109.07-788.5,107.26-790.37,107.26-794.12"/>
		</g>
	</g>
	<g>
		<path class="st5" d="M-327.58,230.94c-9.32,0-16.9,7.58-16.9,16.9c0,9.32,7.58,16.9,16.9,16.9c9.32,0,16.9-7.58,16.9-16.9
			C-310.68,238.52-318.26,230.94-327.58,230.94z"/>
		<path class="st5" d="M-306.63,204.35h-42.78c-12.19,0-22.1,9.91-22.1,22.1v42.78c0,12.19,9.91,22.1,22.1,22.1h42.78
			c12.19,0,22.1-9.91,22.1-22.1v-42.78C-284.53,214.26-294.44,204.35-306.63,204.35z M-327.58,274.23
			c-14.55,0-26.39-11.84-26.39-26.39c0-14.55,11.84-26.38,26.39-26.38c14.55,0,26.39,11.84,26.39,26.38
			C-301.19,262.39-313.03,274.23-327.58,274.23z M-299.65,225.96c-3.47,0-6.28-2.81-6.28-6.28c0-3.47,2.81-6.28,6.28-6.28
			c3.47,0,6.28,2.81,6.28,6.28C-293.37,223.15-296.18,225.96-299.65,225.96z"/>
		<path class="st5" d="M-328.02,156.59c-50.47,0-91.38,40.91-91.38,91.38s40.91,91.38,91.38,91.38c50.47,0,91.38-40.91,91.38-91.38
			S-277.55,156.59-328.02,156.59z M-274.45,269.23c0,17.75-14.44,32.18-32.18,32.18h-42.78c-17.75,0-32.18-14.44-32.18-32.18v-42.78
			c0-17.75,14.44-32.18,32.18-32.18h42.78c17.75,0,32.18,14.44,32.18,32.18V269.23z"/>
	</g>
	<g>
		<g>
			<path class="st5" d="M1373.82,585l-24.08-13.1c-0.99-0.56-4.37,0.15-4.37,1.29v25.55c0,1.12,3.35,1.84,4.34,1.3l25.16-12.45
				C1375.89,587.04,1374.83,585.58,1373.82,585z"/>
			<path class="st5" d="M1358.95,494.49c-50.47,0-91.38,40.91-91.38,91.38c0,50.47,40.91,91.38,91.38,91.38
				c50.47,0,91.38-40.91,91.38-91.38C1450.32,535.4,1409.41,494.49,1358.95,494.49z M1407.87,598.69c0,12.12-9.82,21.94-21.94,21.94
				h-56.11c-12.12,0-21.94-9.82-21.94-21.94v-26.11c0-12.12,9.82-21.94,21.94-21.94h56.11c12.12,0,21.94,9.82,21.94,21.94V598.69z"
				/>
		</g>
		<g>
			<path class="st5" d="M1373.82,585l-24.08-13.1c-0.99-0.56-4.37,0.15-4.37,1.29v25.55c0,1.12,3.35,1.84,4.34,1.3l25.16-12.45
				C1375.89,587.04,1374.83,585.58,1373.82,585z"/>
			<path class="st5" d="M1358.95,494.49c-50.47,0-91.38,40.91-91.38,91.38c0,50.47,40.91,91.38,91.38,91.38
				c50.47,0,91.38-40.91,91.38-91.38C1450.32,535.4,1409.41,494.49,1358.95,494.49z M1407.87,598.69c0,12.12-9.82,21.94-21.94,21.94
				h-56.11c-12.12,0-21.94-9.82-21.94-21.94v-26.11c0-12.12,9.82-21.94,21.94-21.94h56.11c12.12,0,21.94,9.82,21.94,21.94V598.69z"
				/>
		</g>
	</g>
	<g>
		<g>
			<path class="st5" d="M1705.27,509.39c0-50.47-40.91-91.38-91.38-91.38c-50.47,0-91.38,40.91-91.38,91.38
				c0,45.61,33.42,83.41,77.1,90.27V535.8h-23.2v-26.41h23.2v-20.13c0-22.9,13.64-35.55,34.51-35.55c10,0,20.45,1.78,20.45,1.78
				v22.49h-11.52c-11.35,0-14.89,7.04-14.89,14.27v17.14h25.34l-4.05,26.41h-21.29v63.85C1671.85,592.8,1705.27,555,1705.27,509.39z
				"/>
		</g>
		<g>
			<path class="st5" d="M1705.27,509.39c0-50.47-40.91-91.38-91.38-91.38c-50.47,0-91.38,40.91-91.38,91.38
				c0,45.61,33.42,83.41,77.1,90.27V535.8h-23.2v-26.41h23.2v-20.13c0-22.9,13.64-35.55,34.51-35.55c10,0,20.45,1.78,20.45,1.78
				v22.49h-11.52c-11.35,0-14.89,7.04-14.89,14.27v17.14h25.34l-4.05,26.41h-21.29v63.85C1671.85,592.8,1705.27,555,1705.27,509.39z
				"/>
		</g>
	</g>
	<path class="st5" d="M111.05,11.77c-50.47,0-91.38,40.91-91.38,91.38c0,50.47,40.91,91.38,91.38,91.38
		c50.47,0,91.38-40.91,91.38-91.38C202.43,52.68,161.52,11.77,111.05,11.77z M90.43,142.98h-17.7V86.13h17.7V142.98z M81.59,78.37
		c-5.67,0-10.26-4.6-10.26-10.25c0-5.65,4.59-10.24,10.26-10.24c5.66,0,10.25,4.59,10.25,10.24C91.83,73.77,87.25,78.37,81.59,78.37
		z M156.63,142.98h-17.66v-27.64c0-6.6-0.13-15.08-9.18-15.08c-9.2,0-10.6,7.18-10.6,14.59v28.12h-17.66V86.13h16.95v7.78h0.23
		c2.36-4.47,8.13-9.18,16.73-9.18c17.89,0,21.19,11.77,21.19,27.08V142.98z"/>
	<path class="st5" d="M392.09,677.24c-50.47,0-91.38,40.91-91.38,91.38c0,50.47,40.91,91.38,91.38,91.38
		c50.47,0,91.38-40.91,91.38-91.38C483.47,718.15,442.56,677.24,392.09,677.24z M439.56,758.09h-0.02
		c-0.93,0.09-1.87,0.14-2.81,0.14c-10.3,0-19.91-5.19-25.55-13.81v47.02c0,19.19-15.56,34.75-34.75,34.75
		c-19.19,0-34.75-15.56-34.75-34.75s15.56-34.75,34.75-34.75c0.72,0,1.43,0.07,2.15,0.11v17.12c-0.71-0.09-1.41-0.22-2.15-0.22
		c-9.8,0-17.74,7.94-17.74,17.74c0,9.8,7.94,17.74,17.74,17.74c9.8,0,18.45-7.72,18.45-17.52l0.17-79.85h16.38
		c1.54,14.69,13.39,26.17,28.12,27.24V758.09z"/>
	<g>
		<path class="st5" d="M1044.62,169.59c-2.14-2.85-4.29-5.7-6.43-8.54c-1.36-1.81-2.73-3.62-4.1-5.44
			c-1.94-2.59-3.88-5.19-5.82-7.79c-1.67-2.23-3.35-4.44-5.02-6.67c-1.71-2.29-3.41-4.6-5.13-6.89c-2.84-3.78-5.69-7.55-8.53-11.33
			c-2.16-2.87-4.29-5.76-6.45-8.63c-3.19-4.26-6.4-8.5-9.59-12.76c-1.38-1.84-2.76-3.67-4.1-5.53c-0.47-0.66-1.01-0.95-1.83-0.93
			c-1.89,0.05-3.78,0.01-5.68,0.01c0,0,0-0.01,0-0.01c-1.97,0-3.95-0.01-5.92,0.01c-0.25,0-0.6,0.04-0.72,0.21
			c-0.21,0.28,0.07,0.54,0.25,0.78c0.76,1.02,1.52,2.04,2.28,3.05c1.61,2.13,3.23,4.26,4.84,6.4c1.41,1.88,2.79,3.78,4.19,5.66
			c1.65,2.21,3.32,4.4,4.97,6.6c1.25,1.66,2.49,3.33,3.73,5c1.17,1.56,2.35,3.1,3.51,4.66c1.71,2.29,3.42,4.59,5.13,6.89
			c1.11,1.49,2.23,2.98,3.35,4.48c1.83,2.44,3.65,4.89,5.49,7.32c1.27,1.68,2.56,3.34,3.83,5.03c1.55,2.07,3.08,4.17,4.63,6.24
			c1.63,2.18,3.29,4.35,4.92,6.54c3.12,4.17,6.24,8.35,9.35,12.53c0.51,0.68,1.09,1.02,1.98,1c3.46-0.04,6.92-0.02,10.38-0.02
			c0.46,0,0.92,0.03,1.38,0c0.59-0.05,0.72-0.34,0.38-0.8C1048.15,174.31,1046.39,171.95,1044.62,169.59z"/>
		<path class="st5" d="M1012.41,44.95c-50.47,0-91.38,40.91-91.38,91.38c0,50.47,40.91,91.38,91.38,91.38
			c50.47,0,91.38-40.91,91.38-91.38C1103.79,85.86,1062.88,44.95,1012.41,44.95z M1061.32,183.79c-0.59,0.03-1.19-0.01-1.78-0.01
			c-8.35,0-16.71-0.01-25.06,0.01c-0.76,0-1.26-0.26-1.7-0.86c-1.83-2.48-3.69-4.93-5.53-7.4c-1.65-2.21-3.28-4.43-4.93-6.63
			c-1.86-2.49-3.72-4.97-5.58-7.47c-1.5-2.01-2.98-4.04-4.48-6.05c-1.29-1.73-2.62-3.44-3.92-5.16c-0.62-0.82-1.22-1.65-1.83-2.48
			c-0.16-0.22-0.33-0.43-0.51-0.63c-0.41-0.44-0.59-0.45-0.99-0.02c-2.86,3.06-5.72,6.12-8.58,9.18c-1.72,1.84-3.44,3.66-5.16,5.5
			c-1.92,2.05-3.83,4.11-5.75,6.17c-4.13,4.42-8.27,8.84-12.41,13.26c-0.65,0.69-1.3,1.38-1.93,2.08c-0.31,0.34-0.68,0.5-1.14,0.5
			c-2.14,0-4.27,0.01-6.41,0.02c-0.08,0-0.16,0-0.24-0.01c-0.53-0.06-0.66-0.34-0.3-0.75c0.54-0.64,1.13-1.24,1.7-1.85
			c2.16-2.31,4.33-4.61,6.49-6.92c2.39-2.54,4.78-5.07,7.16-7.62c1.83-1.95,3.62-3.94,5.45-5.89c1.95-2.09,3.93-4.17,5.89-6.26
			c2.81-3,5.6-6.01,8.41-9.01c1.03-1.11,2.08-2.2,3.11-3.3c0.48-0.51,0.48-0.65,0.09-1.18c-1.24-1.7-2.47-3.41-3.74-5.1
			c-2.25-3-4.54-5.98-6.79-8.98c-1.6-2.14-3.16-4.31-4.76-6.46c-1.39-1.86-2.82-3.69-4.21-5.55c-2.14-2.85-4.25-5.73-6.39-8.58
			c-2.13-2.85-4.29-5.7-6.43-8.55c-1.12-1.49-2.22-3-3.33-4.49c-0.86-1.15-1.72-2.29-2.58-3.43c-0.17-0.23-0.53-0.46-0.29-0.75
			c0.15-0.18,0.52-0.23,0.8-0.24c0.89-0.02,1.78,0,2.68,0c8,0,16.01,0.01,24.01-0.02c0.87,0,1.45,0.28,1.96,1
			c1.63,2.26,3.33,4.46,5,6.69c2.21,2.96,4.41,5.94,6.63,8.9c1.13,1.51,2.29,3.01,3.42,4.52c1.2,1.6,2.36,3.22,3.56,4.82
			c1.28,1.71,2.59,3.39,3.87,5.1c0.8,1.06,1.57,2.13,2.35,3.2c0.8,1.11,0.94,1.12,1.86,0.14c2.04-2.17,4.09-4.32,6.12-6.49
			c1.2-1.28,2.35-2.61,3.54-3.89c1.41-1.52,2.85-3.02,4.28-4.54c1.37-1.46,2.73-2.92,4.09-4.38c1.98-2.11,3.97-4.2,5.94-6.31
			c1.6-1.72,3.19-3.45,4.79-5.18c0.97-1.05,1.95-2.1,2.96-3.11c0.23-0.23,0.61-0.41,0.92-0.42c2.24-0.04,4.49-0.04,6.73-0.03
			c0.22,0,0.44,0.11,0.84,0.22c-0.55,0.6-0.94,1.04-1.34,1.47c-2.84,3.04-5.69,6.08-8.53,9.12c-2.62,2.8-5.23,5.61-7.85,8.42
			c-2.12,2.27-4.22,4.56-6.34,6.83c-2.55,2.73-5.1,5.44-7.65,8.16c-1.77,1.89-3.54,3.79-5.31,5.69c-0.35,0.38-0.36,0.58-0.05,1
			c1.12,1.49,2.25,2.97,3.37,4.46c1.49,1.99,2.96,3.99,4.44,5.98c1.55,2.08,3.1,4.16,4.65,6.23c1.84,2.47,3.67,4.94,5.52,7.41
			c2.42,3.22,4.86,6.42,7.27,9.64c2.2,2.94,4.35,5.92,6.54,8.86c1.53,2.06,3.09,4.1,4.64,6.15c1.08,1.42,2.16,2.83,3.22,4.27
			c0.14,0.2,0.27,0.55,0.18,0.73C1061.93,183.68,1061.57,183.77,1061.32,183.79z"/>
	</g>
</g>
</svg>
