<svg version="1.1" id="Layer_1" xmlns="http://www.w3.org/2000/svg" xmlns:xlink="http://www.w3.org/1999/xlink" x="0px" y="0px"
	 width="100%" viewBox="0 0 1080 1080" enable-background="new 0 0 1080 1080" xml:space="preserve">
<path fill="#ffffff" opacity="1.000000" stroke="none"
	d="
M497.000000,1081.000000
	C331.352386,1081.000000 166.204788,1081.000000 1.028589,1081.000000
	C1.028589,721.060608 1.028589,361.121216 1.028589,1.090902
	C360.897858,1.090902 720.795715,1.090902 1080.846802,1.090902
	C1080.846802,360.999939 1080.846802,720.999939 1080.846802,1081.000000
	C886.454102,1081.000000 691.977051,1081.000000 497.000000,1081.000000
M662.500000,775.998047
	C731.161133,775.998047 799.822266,776.038696 868.483276,775.955383
	C879.118225,775.942505 889.751831,775.131042 900.387329,775.097778
	C916.154663,775.048523 931.454712,772.369690 946.515869,767.918579
	C966.128357,762.122375 982.412354,751.145264 994.800171,735.071533
	C1010.179871,715.115784 1016.597900,691.549805 1016.785156,666.900024
	C1017.362427,590.910767 1016.999939,514.914307 1016.981445,438.920685
	C1016.980957,436.989441 1016.736450,435.058258 1016.560913,432.464813
	C1013.737427,433.220276 1011.494995,433.644562 1009.377686,434.413177
	C977.344482,446.041260 945.368591,457.829132 913.267151,469.265045
	C907.885376,471.182251 905.832336,473.733154 905.862061,479.640686
	C906.107361,528.468689 906.050476,577.298645 905.953125,626.127625
	C905.935974,634.759521 905.412659,643.396362 904.923340,652.019531
	C904.550781,658.584839 901.490479,661.884094 894.888977,663.026123
	C891.795410,663.561340 888.631714,663.951111 885.498779,663.958557
	C856.168091,664.028198 826.837036,664.036560 797.506226,663.984375
	C784.668457,663.961487 786.023438,665.319397 786.016785,652.462524
	C785.980530,582.301697 786.002319,512.140930 785.990784,441.980103
	C785.989624,435.005585 785.586670,434.682465 778.868652,433.957245
	C769.627380,432.959686 760.415283,431.668060 751.162354,430.807159
	C736.129517,429.408447 721.093323,427.603210 706.023010,427.149017
	C681.407776,426.407104 656.848328,427.866730 632.517639,432.040741
	C609.817810,435.934906 587.758179,441.872742 566.924805,451.990662
	C546.762817,461.782501 529.483948,475.251678 513.998352,491.378204
	C496.429871,509.673767 485.121368,531.479675 477.055115,555.137268
	C470.750702,573.627625 467.530945,592.667664 466.708801,612.298035
	C466.069366,627.566345 467.245300,642.428955 470.969849,657.142334
	C472.624359,663.678223 472.587830,663.991150 465.905334,663.993896
	C433.408051,664.007080 400.910706,664.033508 368.413513,663.984680
	C355.640839,663.965454 357.123230,665.295288 356.999542,652.370667
	C356.671875,618.123535 358.930603,583.739136 352.896576,549.763184
	C348.063690,522.550537 340.350983,496.545654 321.711212,474.791718
	C307.493713,458.198944 290.534119,445.942902 270.381897,438.055878
	C241.028366,426.567719 210.441971,424.995697 179.514389,428.253174
	C153.029816,431.042725 127.120720,436.995605 101.454308,444.033600
	C97.767807,445.044525 95.895042,446.452271 95.917953,450.744781
	C96.089653,482.907837 95.994286,515.072205 96.026192,547.236206
	C96.031448,552.532043 96.658295,552.862061 101.985519,551.461426
	C111.465492,548.968750 120.892830,546.214844 130.468964,544.161438
	C151.962692,539.552429 173.574219,535.809082 195.704666,539.013000
	C208.165771,540.817078 219.691879,544.891418 228.588959,554.180847
	C240.245728,566.351624 244.674332,581.508728 244.929001,597.929199
	C245.226181,617.089661 245.005814,636.258240 244.999146,655.423340
	C244.996170,663.981873 244.984161,663.997253 236.533813,663.998108
	C174.372345,664.004089 112.210861,663.997986 50.049385,664.012634
	C43.164200,664.014221 43.017445,664.161621 43.013161,671.003601
	C42.993343,702.667603 43.001369,734.331665 43.002251,765.995667
	C43.002525,775.992310 43.006546,775.996948 53.050816,775.996948
	C255.867218,775.997986 458.683594,775.997925 662.500000,775.998047
M750.478943,352.000549
	C756.766907,346.203125 763.054871,340.405701 769.451233,334.508331
	C765.251587,330.492218 761.502502,326.759796 757.597778,323.197937
	C739.565430,306.748962 721.409119,290.434570 703.500671,273.852264
	C700.110779,270.713409 697.684387,268.632935 693.985352,273.247955
	C692.147095,275.541473 689.524414,277.196899 687.310120,279.200104
	C676.472046,289.005005 665.689758,298.872437 654.752319,308.564911
	C653.898254,309.321808 651.600769,309.523376 650.670532,308.916199
	C648.051575,307.206726 645.740417,305.001740 643.406799,302.883118
	C631.970886,292.500488 620.529907,282.122650 609.185852,271.640259
	C607.111694,269.723572 605.697083,269.885498 603.723511,271.736206
	C595.242065,279.689758 586.697449,287.577850 578.078613,295.382477
	C569.343567,303.292389 560.453430,311.031036 551.709656,318.931458
	C546.210083,323.900574 540.854858,329.029419 534.854858,334.627808
	C541.290100,340.269836 547.175659,345.330505 552.951904,350.513031
	C569.883911,365.704590 586.794617,380.920166 603.647278,396.199524
	C605.554443,397.928619 606.880554,398.521576 609.060913,396.493805
	C621.100586,385.296814 633.245361,374.212585 645.397583,363.137390
	C647.575867,361.152130 649.957886,359.390350 652.512207,357.308289
	C667.955139,371.267456 683.053955,384.915527 698.311707,398.707245
	C706.800720,391.077362 714.796814,383.862976 722.823914,376.683167
	C731.856750,368.603699 740.917419,360.555298 750.478943,352.000549
M943.508789,298.993988
	C928.191589,313.011047 912.903259,327.059906 897.530457,341.015747
	C894.769043,343.522705 893.485413,345.372101 897.067749,348.504150
	C909.690674,359.540161 922.066040,370.858917 934.555664,382.047699
	C943.831421,390.357330 953.076233,398.704620 962.526001,406.812347
	C963.504456,407.651825 966.420044,407.702576 967.363159,406.883301
	C975.386230,399.914093 983.137512,392.633057 991.014648,385.494446
	C1004.421997,373.344177 1017.828613,361.192444 1031.308472,349.122833
	C1035.261597,345.583313 1035.458008,344.649658 1031.388062,340.945923
	C1025.619751,335.696777 1019.641052,330.676819 1013.922058,325.375763
	C998.565247,311.141083 983.254578,296.855682 968.041504,282.467865
	C965.639343,280.196045 964.131042,280.420410 961.842712,282.563751
	C956.027710,288.010254 949.972473,293.200104 943.508789,298.993988
M669.993591,845.500244
	C660.483459,847.004395 650.973999,848.513123 641.462952,850.011658
	C619.822021,853.421570 598.178772,856.816895 576.540588,860.244202
	C573.537109,860.719910 571.859497,862.252625 571.978760,865.630554
	C572.160889,870.789185 572.117920,875.961243 571.993652,881.123352
	C571.894409,885.245422 573.772888,886.283630 577.613220,885.645508
	C609.547424,880.339355 641.495300,875.114990 673.444092,869.896973
	C680.961975,868.669128 680.972534,868.723511 680.997742,861.256348
	C681.005066,859.090271 681.000183,856.924255 680.999878,854.758179
	C680.998352,844.218750 680.998230,844.218750 669.993591,845.500244
z"/>
<path fill="#000000" opacity="1.000000" stroke="none"
	d="
M662.000000,775.998047
	C458.683594,775.997925 255.867218,775.997986 53.050816,775.996948
	C43.006546,775.996948 43.002525,775.992310 43.002251,765.995667
	C43.001369,734.331665 42.993343,702.667603 43.013161,671.003601
	C43.017445,664.161621 43.164200,664.014221 50.049385,664.012634
	C112.210861,663.997986 174.372345,664.004089 236.533813,663.998108
	C244.984161,663.997253 244.996170,663.981873 244.999146,655.423340
	C245.005814,636.258240 245.226181,617.089661 244.929001,597.929199
	C244.674332,581.508728 240.245728,566.351624 228.588959,554.180847
	C219.691879,544.891418 208.165771,540.817078 195.704666,539.013000
	C173.574219,535.809082 151.962692,539.552429 130.468964,544.161438
	C120.892830,546.214844 111.465492,548.968750 101.985519,551.461426
	C96.658295,552.862061 96.031448,552.532043 96.026192,547.236206
	C95.994286,515.072205 96.089653,482.907837 95.917953,450.744781
	C95.895042,446.452271 97.767807,445.044525 101.454308,444.033600
	C127.120720,436.995605 153.029816,431.042725 179.514389,428.253174
	C210.441971,424.995697 241.028366,426.567719 270.381897,438.055878
	C290.534119,445.942902 307.493713,458.198944 321.711212,474.791718
	C340.350983,496.545654 348.063690,522.550537 352.896576,549.763184
	C358.930603,583.739136 356.671875,618.123535 356.999542,652.370667
	C357.123230,665.295288 355.640839,663.965454 368.413513,663.984680
	C400.910706,664.033508 433.408051,664.007080 465.905334,663.993896
	C472.587830,663.991150 472.624359,663.678223 470.969849,657.142334
	C467.245300,642.428955 466.069366,627.566345 466.708801,612.298035
	C467.530945,592.667664 470.750702,573.627625 477.055115,555.137268
	C485.121368,531.479675 496.429871,509.673767 513.998352,491.378204
	C529.483948,475.251678 546.762817,461.782501 566.924805,451.990662
	C587.758179,441.872742 609.817810,435.934906 632.517639,432.040741
	C656.848328,427.866730 681.407776,426.407104 706.023010,427.149017
	C721.093323,427.603210 736.129517,429.408447 751.162354,430.807159
	C760.415283,431.668060 769.627380,432.959686 778.868652,433.957245
	C785.586670,434.682465 785.989624,435.005585 785.990784,441.980103
	C786.002319,512.140930 785.980530,582.301697 786.016785,652.462524
	C786.023438,665.319397 784.668457,663.961487 797.506226,663.984375
	C826.837036,664.036560 856.168091,664.028198 885.498779,663.958557
	C888.631714,663.951111 891.795410,663.561340 894.888977,663.026123
	C901.490479,661.884094 904.550781,658.584839 904.923340,652.019531
	C905.412659,643.396362 905.935974,634.759521 905.953125,626.127625
	C906.050476,577.298645 906.107361,528.468689 905.862061,479.640686
	C905.832336,473.733154 907.885376,471.182251 913.267151,469.265045
	C945.368591,457.829132 977.344482,446.041260 1009.377686,434.413177
	C1011.494995,433.644562 1013.737427,433.220276 1016.560913,432.464813
	C1016.736450,435.058258 1016.980957,436.989441 1016.981445,438.920685
	C1016.999939,514.914307 1017.362427,590.910767 1016.785156,666.900024
	C1016.597900,691.549805 1010.179871,715.115784 994.800171,735.071533
	C982.412354,751.145264 966.128357,762.122375 946.515869,767.918579
	C931.454712,772.369690 916.154663,775.048523 900.387329,775.097778
	C889.751831,775.131042 879.118225,775.942505 868.483276,775.955383
	C799.822266,776.038696 731.161133,775.998047 662.000000,775.998047
M675.001038,639.500000
	C674.999512,608.539612 674.915771,577.578857 675.081238,546.619324
	C675.107361,541.731262 673.735596,539.824158 668.588684,539.904724
	C654.484253,540.125549 640.707825,542.530640 627.669495,547.486206
	C612.999146,553.062012 600.421997,561.985413 592.042297,575.823975
	C583.059387,590.658752 580.848328,606.639404 582.901855,623.717285
	C585.287109,643.553223 595.976257,656.129395 615.378357,661.104553
	C633.928528,665.861328 652.763428,663.479126 671.487793,663.708740
	C672.628540,663.722717 674.708008,661.007324 674.804077,659.465454
	C675.196655,653.164001 674.988159,646.825134 675.001038,639.500000
z"/>
<path fill="#FD4400" opacity="1.000000" stroke="none"
	d="
M750.222473,352.246948
	C740.917419,360.555298 731.856750,368.603699 722.823914,376.683167
	C714.796814,383.862976 706.800720,391.077362 698.311707,398.707245
	C683.053955,384.915527 667.955139,371.267456 652.512207,357.308289
	C649.957886,359.390350 647.575867,361.152130 645.397583,363.137390
	C633.245361,374.212585 621.100586,385.296814 609.060913,396.493805
	C606.880554,398.521576 605.554443,397.928619 603.647278,396.199524
	C586.794617,380.920166 569.883911,365.704590 552.951904,350.513031
	C547.175659,345.330505 541.290100,340.269836 534.854858,334.627808
	C540.854858,329.029419 546.210083,323.900574 551.709656,318.931458
	C560.453430,311.031036 569.343567,303.292389 578.078613,295.382477
	C586.697449,287.577850 595.242065,279.689758 603.723511,271.736206
	C605.697083,269.885498 607.111694,269.723572 609.185852,271.640259
	C620.529907,282.122650 631.970886,292.500488 643.406799,302.883118
	C645.740417,305.001740 648.051575,307.206726 650.670532,308.916199
	C651.600769,309.523376 653.898254,309.321808 654.752319,308.564911
	C665.689758,298.872437 676.472046,289.005005 687.310120,279.200104
	C689.524414,277.196899 692.147095,275.541473 693.985352,273.247955
	C697.684387,268.632935 700.110779,270.713409 703.500671,273.852264
	C721.409119,290.434570 739.565430,306.748962 757.597778,323.197937
	C761.502502,326.759796 765.251587,330.492218 769.451233,334.508331
	C763.054871,340.405701 756.766907,346.203125 750.222473,352.246948
z"/>
<path fill="#000000" opacity="1.000000" stroke="none"
	d="
M943.761108,298.743347
	C949.972473,293.200104 956.027710,288.010254 961.842712,282.563751
	C964.131042,280.420410 965.639343,280.196045 968.041504,282.467865
	C983.254578,296.855682 998.565247,311.141083 1013.922058,325.375763
	C1019.641052,330.676819 1025.619751,335.696777 1031.388062,340.945923
	C1035.458008,344.649658 1035.261597,345.583313 1031.308472,349.122833
	C1017.828613,361.192444 1004.421997,373.344177 991.014648,385.494446
	C983.137512,392.633057 975.386230,399.914093 967.363159,406.883301
	C966.420044,407.702576 963.504456,407.651825 962.526001,406.812347
	C953.076233,398.704620 943.831421,390.357330 934.555664,382.047699
	C922.066040,370.858917 909.690674,359.540161 897.067749,348.504150
	C893.485413,345.372101 894.769043,343.522705 897.530457,341.015747
	C912.903259,327.059906 928.191589,313.011047 943.761108,298.743347
z"/>
<path fill="#000000" opacity="1.000000" stroke="none"
	d="
M670.409424,845.374451
	C680.998230,844.218750 680.998352,844.218750 680.999878,854.758179
	C681.000183,856.924255 681.005066,859.090271 680.997742,861.256348
	C680.972534,868.723511 680.961975,868.669128 673.444092,869.896973
	C641.495300,875.114990 609.547424,880.339355 577.613220,885.645508
	C573.772888,886.283630 571.894409,885.245422 571.993652,881.123352
	C572.117920,875.961243 572.160889,870.789185 571.978760,865.630554
	C571.859497,862.252625 573.537109,860.719910 576.540588,860.244202
	C598.178772,856.816895 619.822021,853.421570 641.462952,850.011658
	C650.973999,848.513123 660.483459,847.004395 670.409424,845.374451
z"/>
<path fill="#ffffff" opacity="1.000000" stroke="none"
	d="
M675.001038,640.000000
	C674.988159,646.825134 675.196655,653.164001 674.804077,659.465454
	C674.708008,661.007324 672.628540,663.722717 671.487793,663.708740
	C652.763428,663.479126 633.928528,665.861328 615.378357,661.104553
	C595.976257,656.129395 585.287109,643.553223 582.901855,623.717285
	C580.848328,606.639404 583.059387,590.658752 592.042297,575.823975
	C600.421997,561.985413 612.999146,553.062012 627.669495,547.486206
	C640.707825,542.530640 654.484253,540.125549 668.588684,539.904724
	C673.735596,539.824158 675.107361,541.731262 675.081238,546.619324
	C674.915771,577.578857 674.999512,608.539612 675.001038,640.000000
z"/>
</svg>